<svg width="112" height="32" viewBox="0 0 112 32" fill="none" xmlns="http://www.w3.org/2000/svg">
<path d="M25.6565 15.8272C25.6326 13.2488 27.8263 11.9944 27.9266 11.936C26.6842 10.1736 24.7586 9.93283 24.0819 9.91363C22.4646 9.74803 20.8958 10.8552 20.0719 10.8552C19.2316 10.8552 17.9629 9.92963 16.5956 9.95683C14.836 9.98323 13.1899 10.9744 12.2871 12.5136C10.424 15.652 11.8135 20.264 13.5986 22.8008C14.4915 24.0432 15.5349 25.4304 16.9006 25.3816C18.2367 25.328 18.7358 24.5528 20.3482 24.5528C21.9458 24.5528 22.4144 25.3816 23.8073 25.3504C25.2412 25.328 26.144 24.1024 27.0057 22.8488C28.0376 21.4248 28.452 20.0224 28.4685 19.9504C28.4348 19.9392 25.6836 18.9176 25.6565 15.8272Z" fill="black"/>
<path d="M23.0254 8.24483C23.744 7.37043 24.2357 6.18083 24.0992 4.97363C23.0591 5.01843 21.7583 5.67363 21.0093 6.52883C20.3466 7.28243 19.7546 8.51763 19.9075 9.67923C21.0759 9.76403 22.2755 9.10563 23.0254 8.24483Z" fill="black"/>
<path d="M41.215 8.00721C41.215 8.94881 40.9248 9.65761 40.3451 10.1336C39.8082 10.5728 39.0452 10.7928 38.0569 10.7928C37.5668 10.7928 37.1475 10.772 36.7964 10.7304V5.58561C37.2544 5.51361 37.7477 5.47681 38.2805 5.47681C39.2219 5.47681 39.9315 5.67601 40.4101 6.07441C40.9461 6.52481 41.215 7.16881 41.215 8.00721ZM40.3065 8.03041C40.3065 7.42001 40.1404 6.95201 39.8082 6.62561C39.476 6.30001 38.9909 6.13681 38.352 6.13681C38.0807 6.13681 37.8497 6.15441 37.6581 6.19121V10.1024C37.7641 10.1184 37.9582 10.1256 38.2402 10.1256C38.8996 10.1256 39.4086 9.94721 39.7671 9.59041C40.1256 9.23361 40.3065 8.71361 40.3065 8.03041Z" fill="black"/>
<path d="M46.0325 8.82951C46.0325 9.40951 45.8623 9.88471 45.5219 10.2575C45.1651 10.6407 44.6923 10.8319 44.102 10.8319C43.533 10.8319 43.0799 10.6487 42.742 10.2807C42.4049 9.91351 42.2363 9.45031 42.2363 8.89191C42.2363 8.30791 42.4098 7.82872 42.7584 7.45672C43.1071 7.08472 43.5757 6.89832 44.1661 6.89832C44.7351 6.89832 45.1922 7.08152 45.5384 7.44872C45.8673 7.80552 46.0325 8.26631 46.0325 8.82951ZM45.1388 8.85671C45.1388 8.50872 45.0615 8.21031 44.9077 7.96151C44.7268 7.66071 44.4695 7.51031 44.1348 7.51031C43.7887 7.51031 43.5256 7.66071 43.3447 7.96151C43.1901 8.21031 43.1136 8.51352 43.1136 8.87191C43.1136 9.21991 43.1909 9.51831 43.3447 9.76711C43.5313 10.0679 43.7912 10.2183 44.1266 10.2183C44.4555 10.2183 44.7137 10.0655 44.8995 9.75911C45.059 9.50552 45.1388 9.20472 45.1388 8.85671Z" fill="black"/>
<path d="M52.4918 6.9751L51.279 10.7463H50.4896L49.9873 9.1087C49.8598 8.6999 49.7562 8.2935 49.6756 7.8903H49.66C49.5852 8.3047 49.4816 8.7103 49.3484 9.1087L48.8148 10.7463H48.0164L46.876 6.9751H47.7615L48.1998 8.7679C48.3058 9.1919 48.393 9.5959 48.4629 9.9783H48.4785C48.5426 9.6631 48.6487 9.2615 48.7983 8.7759L49.3484 6.9759H50.0506L50.5776 8.7375C50.7051 9.1671 50.8087 9.5807 50.8884 9.9791H50.9123C50.9706 9.5911 51.0586 9.1775 51.1754 8.7375L51.6457 6.9759H52.4918V6.9751Z" fill="black"/>
<path d="M56.9589 10.7464H56.0973V8.5864C56.0973 7.9208 55.8374 7.588 55.3161 7.588C55.0604 7.588 54.8541 7.6792 54.6937 7.8624C54.535 8.0456 54.4545 8.2616 54.4545 8.5088V10.7456H53.5928V8.0528C53.5928 7.7216 53.5821 7.3624 53.5615 6.9736H54.3188L54.3591 7.5632H54.3829C54.4832 7.38 54.6329 7.2288 54.8294 7.108C55.0629 6.9672 55.3244 6.896 55.6105 6.896C55.9723 6.896 56.2732 7.0096 56.5125 7.2376C56.8101 7.5168 56.9589 7.9336 56.9589 8.4872V10.7464Z" fill="black"/>
<path d="M59.335 10.7464H58.4741V5.24475H59.335V10.7464Z" fill="black"/>
<path d="M64.4085 8.82951C64.4085 9.40951 64.2383 9.88471 63.8979 10.2575C63.5411 10.6407 63.0675 10.8319 62.4779 10.8319C61.9081 10.8319 61.4551 10.6487 61.118 10.2807C60.7809 9.91351 60.6123 9.45031 60.6123 8.89191C60.6123 8.30791 60.7858 7.82872 61.1344 7.45672C61.483 7.08472 61.9517 6.89832 62.5412 6.89832C63.111 6.89832 63.5674 7.08152 63.9143 7.44872C64.2432 7.80552 64.4085 8.26631 64.4085 8.82951ZM63.5139 8.85671C63.5139 8.50872 63.4366 8.21031 63.2829 7.96151C63.1028 7.66071 62.8446 7.51031 62.5108 7.51031C62.1638 7.51031 61.9007 7.66071 61.7207 7.96151C61.5661 8.21031 61.4896 8.51352 61.4896 8.87191C61.4896 9.21991 61.5669 9.51831 61.7207 9.76711C61.9073 10.0679 62.1671 10.2183 62.5026 10.2183C62.8315 10.2183 63.0888 10.0655 63.2747 9.75911C63.435 9.50552 63.5139 9.20472 63.5139 8.85671Z" fill="black"/>
<path d="M68.5785 10.7463H67.8048L67.7406 10.3119H67.7168C67.452 10.6583 67.0746 10.8319 66.5846 10.8319C66.2187 10.8319 65.9227 10.7175 65.6999 10.4903C65.4976 10.2839 65.3965 10.0271 65.3965 9.72231C65.3965 9.26151 65.5938 8.91031 65.9909 8.66711C66.3873 8.42391 66.9447 8.30471 67.6625 8.31031V8.23992C67.6625 7.74312 67.3945 7.49512 66.8576 7.49512C66.4752 7.49512 66.1381 7.58872 65.8471 7.77432L65.6719 7.22392C66.0321 7.00712 66.4769 6.89832 67.0015 6.89832C68.0144 6.89832 68.5226 7.41832 68.5226 8.45831V9.84711C68.5226 10.2239 68.5415 10.5239 68.5785 10.7463ZM67.6839 9.45031V8.86872C66.7334 8.85272 66.2582 9.10632 66.2582 9.62872C66.2582 9.82551 66.3124 9.97271 66.4234 10.0711C66.5344 10.1695 66.6759 10.2183 66.8444 10.2183C67.0335 10.2183 67.2103 10.1599 67.3715 10.0439C67.5334 9.92711 67.6329 9.77911 67.6699 9.59751C67.679 9.55671 67.6839 9.50711 67.6839 9.45031Z" fill="black"/>
<path d="M73.4749 10.7464H72.7102L72.6699 10.1408H72.6461C72.4019 10.6016 71.9859 10.832 71.4013 10.832C70.9342 10.832 70.5453 10.6536 70.237 10.2968C69.9287 9.93995 69.7749 9.47675 69.7749 8.90795C69.7749 8.29755 69.9418 7.80315 70.2773 7.42555C70.6021 7.07355 71 6.89755 71.4736 6.89755C71.9941 6.89755 72.3583 7.06795 72.5655 7.40955H72.582V5.24475H73.4445V9.73035C73.4445 10.0976 73.4543 10.436 73.4749 10.7464ZM72.582 9.15595V8.52715C72.582 8.41835 72.5737 8.33035 72.5581 8.26315C72.5096 8.06155 72.4052 7.89195 72.2465 7.75515C72.0862 7.61835 71.8929 7.54955 71.6701 7.54955C71.3486 7.54955 71.097 7.67355 70.912 7.92235C70.7287 8.17115 70.6358 8.48875 70.6358 8.87675C70.6358 9.24955 70.7237 9.55195 70.9005 9.78475C71.0872 10.0328 71.3388 10.1568 71.6537 10.1568C71.9365 10.1568 72.1626 10.0536 72.3345 9.84635C72.5006 9.65515 72.582 9.42475 72.582 9.15595Z" fill="black"/>
<path d="M80.8445 8.82951C80.8445 9.40951 80.6743 9.88471 80.3339 10.2575C79.9771 10.6407 79.5051 10.8319 78.914 10.8319C78.3458 10.8319 77.8928 10.6487 77.554 10.2807C77.2169 9.91351 77.0483 9.45031 77.0483 8.89191C77.0483 8.30791 77.2218 7.82872 77.5705 7.45672C77.9191 7.08472 78.3877 6.89832 78.9789 6.89832C79.5471 6.89832 80.0051 7.08152 80.3504 7.44872C80.6793 7.80552 80.8445 8.26631 80.8445 8.82951ZM79.9516 8.85671C79.9516 8.50872 79.8743 8.21031 79.7206 7.96151C79.5388 7.66071 79.2823 7.51031 78.9469 7.51031C78.6015 7.51031 78.3384 7.66071 78.1567 7.96151C78.0021 8.21031 77.9257 8.51352 77.9257 8.87191C77.9257 9.21991 78.0029 9.51831 78.1567 9.76711C78.3433 10.0679 78.6032 10.2183 78.9386 10.2183C79.2675 10.2183 79.5265 10.0655 79.7123 9.75911C79.871 9.50552 79.9516 9.20472 79.9516 8.85671Z" fill="black"/>
<path d="M85.4776 10.7464H84.6168V8.5864C84.6168 7.9208 84.357 7.588 83.8349 7.588C83.5791 7.588 83.3728 7.6792 83.2132 7.8624C83.0537 8.0456 82.974 8.2616 82.974 8.5088V10.7456H82.1115V8.0528C82.1115 7.7216 82.1016 7.3624 82.0811 6.9736H82.8375L82.8778 7.5632H82.9016C83.0028 7.38 83.1524 7.2288 83.3481 7.108C83.5824 6.9672 83.8431 6.896 84.13 6.896C84.491 6.896 84.7919 7.0096 85.0312 7.2376C85.3296 7.5168 85.4776 7.9336 85.4776 8.4872V10.7464Z" fill="black"/>
<path d="M91.2766 7.60321H90.3278V9.43521C90.3278 9.90081 90.4963 10.1336 90.8301 10.1336C90.9847 10.1336 91.113 10.1208 91.2141 10.0944L91.2363 10.7304C91.0661 10.7928 90.8425 10.824 90.567 10.824C90.2266 10.824 89.9619 10.7232 89.7703 10.5216C89.5779 10.32 89.4825 9.98081 89.4825 9.50481V7.60321H88.916V6.97521H89.4825V6.28401L90.3269 6.03601V6.97441H91.2758V7.60321H91.2766Z" fill="black"/>
<path d="M95.8384 10.7464H94.9758V8.60235C94.9758 7.92635 94.716 7.58795 94.1956 7.58795C93.796 7.58795 93.523 7.78395 93.3733 8.17595C93.3478 8.25835 93.333 8.35915 93.333 8.47755V10.7456H92.4722V5.24475H93.333V7.51755H93.3495C93.6208 7.10395 94.0097 6.89755 94.5138 6.89755C94.8706 6.89755 95.1658 7.01115 95.4001 7.23915C95.692 7.52315 95.8384 7.94555 95.8384 8.50395V10.7464Z" fill="black"/>
<path d="M100.544 8.68231C100.544 8.83271 100.533 8.95911 100.512 9.06231H97.9278C97.9393 9.43511 98.0626 9.71911 98.3019 9.91591C98.5206 10.0919 98.8026 10.1799 99.1479 10.1799C99.5303 10.1799 99.8789 10.1207 100.193 10.0015L100.328 10.5839C99.9603 10.7391 99.5278 10.8167 99.0271 10.8167C98.4269 10.8167 97.9541 10.6447 97.612 10.3007C97.2683 9.95671 97.0981 9.49511 97.0981 8.91591C97.0981 8.34711 97.2568 7.87351 97.5767 7.49591C97.9105 7.09271 98.3619 6.89111 98.9317 6.89111C99.4892 6.89111 99.9126 7.09271 100.199 7.49591C100.43 7.81591 100.544 8.21191 100.544 8.68231ZM99.7219 8.46551C99.7284 8.21671 99.6717 8.00231 99.5549 7.82151C99.4053 7.58871 99.1775 7.47191 98.8692 7.47191C98.588 7.47191 98.3586 7.58551 98.1835 7.81351C98.0404 7.99511 97.9557 8.21191 97.9278 8.46551H99.7219Z" fill="black"/>
<path d="M44.993 25.2032H43.1258L42.1029 22.076H38.5476L37.5733 25.2032H35.7554L39.2778 14.5568H41.4534L44.993 25.2032ZM41.7946 20.764L40.8696 17.984C40.7717 17.7 40.5884 17.0312 40.3179 15.9784H40.285C40.1773 16.4312 40.0038 17.1 39.7653 17.984L38.8568 20.764H41.7946Z" fill="black"/>
<path d="M54.0513 21.2704C54.0513 22.576 53.6887 23.608 52.9635 24.3656C52.3139 25.04 51.5073 25.3768 50.5445 25.3768C49.5052 25.3768 48.7586 25.0136 48.3039 24.2872H48.2711V28.3312H46.5181V20.0536C46.5181 19.2328 46.4959 18.3904 46.4531 17.5264H47.9948L48.0926 18.7432H48.1255C48.7101 17.8264 49.5973 17.3688 50.7879 17.3688C51.7186 17.3688 52.4956 17.7264 53.1172 18.4424C53.7405 19.1592 54.0513 20.1016 54.0513 21.2704ZM52.2654 21.3328C52.2654 20.5856 52.0927 19.9696 51.7458 19.4848C51.3667 18.9792 50.8578 18.7264 50.2197 18.7264C49.7872 18.7264 49.3942 18.8672 49.0431 19.1448C48.6912 19.4248 48.461 19.7904 48.3533 20.2432C48.299 20.4544 48.2719 20.6272 48.2719 20.7632V22.0432C48.2719 22.6016 48.4478 23.0728 48.7997 23.4576C49.1517 23.8424 49.6088 24.0344 50.1712 24.0344C50.8315 24.0344 51.3453 23.7864 51.7129 23.292C52.0812 22.7968 52.2654 22.144 52.2654 21.3328Z" fill="black"/>
<path d="M63.1261 21.2704C63.1261 22.576 62.7635 23.608 62.0375 24.3656C61.3888 25.04 60.5822 25.3768 59.6194 25.3768C58.5801 25.3768 57.8335 25.0136 57.3796 24.2872H57.3467V28.3312H55.5938V20.0536C55.5938 19.2328 55.5716 18.3904 55.5288 17.5264H57.0705L57.1683 18.7432H57.2012C57.785 17.8264 58.6722 17.3688 59.8636 17.3688C60.7935 17.3688 61.5705 17.7264 62.1937 18.4424C62.8145 19.1592 63.1261 20.1016 63.1261 21.2704ZM61.3403 21.3328C61.3403 20.5856 61.1668 19.9696 60.8198 19.4848C60.4408 18.9792 59.9335 18.7264 59.2946 18.7264C58.8613 18.7264 58.4691 18.8672 58.1172 19.1448C57.7653 19.4248 57.5359 19.7904 57.4281 20.2432C57.3747 20.4544 57.3467 20.6272 57.3467 20.7632V22.0432C57.3467 22.6016 57.5227 23.0728 57.873 23.4576C58.2249 23.8416 58.682 24.0344 59.2461 24.0344C59.9063 24.0344 60.4202 23.7864 60.7877 23.292C61.1561 22.7968 61.3403 22.144 61.3403 21.3328Z" fill="black"/>
<path d="M73.2726 22.2176C73.2726 23.1232 72.9495 23.86 72.3008 24.4288C71.5879 25.0504 70.5955 25.3608 69.3202 25.3608C68.1428 25.3608 67.1989 25.14 66.4844 24.6976L66.8906 23.276C67.6602 23.7288 68.5046 23.956 69.4246 23.956C70.0849 23.956 70.5988 23.8104 70.968 23.5208C71.3355 23.2312 71.5188 22.8424 71.5188 22.3576C71.5188 21.9256 71.3676 21.5616 71.0642 21.2664C70.7624 20.9712 70.2584 20.6968 69.5546 20.4432C67.6388 19.748 66.6817 18.7296 66.6817 17.3904C66.6817 16.5152 67.0172 15.7976 67.6889 15.2392C68.3582 14.68 69.2512 14.4008 70.3677 14.4008C71.3634 14.4008 72.1906 14.5696 72.8508 14.9064L72.4126 16.2968C71.7959 15.9704 71.0987 15.8072 70.3184 15.8072C69.7017 15.8072 69.2199 15.9552 68.8746 16.2496C68.5827 16.5128 68.4363 16.8336 68.4363 17.2136C68.4363 17.6344 68.6032 17.9824 68.9387 18.256C69.2306 18.5088 69.7609 18.7824 70.5305 19.0776C71.472 19.4464 72.1635 19.8776 72.6083 20.372C73.0515 20.8648 73.2726 21.4816 73.2726 22.2176Z" fill="black"/>
<path d="M79.0682 18.8063H77.136V22.5335C77.136 23.4815 77.4764 23.9551 78.1589 23.9551C78.4721 23.9551 78.732 23.9287 78.9375 23.8759L78.986 25.1711C78.6407 25.2967 78.186 25.3599 77.6228 25.3599C76.9305 25.3599 76.3895 25.1543 75.9989 24.7439C75.61 24.3327 75.4143 23.6431 75.4143 22.6743V18.8047H74.2632V17.5247H75.4143V16.1191L77.136 15.6135V17.5247H79.0682V18.8063Z" fill="black"/>
<path d="M87.7862 21.3015C87.7862 22.4815 87.4392 23.4503 86.7469 24.2079C86.0209 24.9879 85.0572 25.3767 83.856 25.3767C82.6983 25.3767 81.7765 25.0031 81.0892 24.2559C80.4018 23.5087 80.0581 22.5655 80.0581 21.4287C80.0581 20.2391 80.4117 19.2647 81.1212 18.5071C81.8292 17.7487 82.7846 17.3695 83.9859 17.3695C85.1435 17.3695 86.0751 17.7431 86.7781 18.4911C87.4507 19.2167 87.7862 20.1535 87.7862 21.3015ZM85.9674 21.3567C85.9674 20.6487 85.812 20.0415 85.4971 19.5351C85.1296 18.9223 84.6042 18.6167 83.9234 18.6167C83.2187 18.6167 82.6835 18.9231 82.3159 19.5351C82.001 20.0423 81.8456 20.6591 81.8456 21.3887C81.8456 22.0967 82.001 22.7039 82.3159 23.2095C82.695 23.8223 83.2245 24.1279 83.9077 24.1279C84.577 24.1279 85.1024 23.8159 85.4815 23.1935C85.8046 22.6775 85.9674 22.0639 85.9674 21.3567Z" fill="black"/>
<path d="M93.4845 19.0264C93.311 18.9952 93.126 18.9792 92.932 18.9792C92.3153 18.9792 91.8384 19.2056 91.5029 19.6592C91.211 20.0592 91.0647 20.5648 91.0647 21.1752V25.2032H89.3125L89.329 19.944C89.329 19.0592 89.3068 18.2536 89.2632 17.5272H90.7901L90.8542 18.996H90.9027C91.0877 18.4912 91.3796 18.0848 91.7792 17.78C92.1697 17.5056 92.5915 17.3688 93.0462 17.3688C93.2082 17.3688 93.3546 17.38 93.4845 17.4V19.0264Z" fill="black"/>
<path d="M101.324 21.0016C101.324 21.3072 101.304 21.5648 101.26 21.7752H96.0013C96.0219 22.5336 96.276 23.1136 96.7644 23.5136C97.2075 23.8712 97.7806 24.0504 98.4845 24.0504C99.2631 24.0504 99.9735 23.9296 100.612 23.6872L100.887 24.8712C100.14 25.188 99.259 25.3456 98.2419 25.3456C97.0184 25.3456 96.0581 24.9952 95.3592 24.2952C94.6619 23.5952 94.3125 22.6552 94.3125 21.476C94.3125 20.3184 94.6373 19.3544 95.2877 18.5856C95.9685 17.7648 96.8885 17.3544 98.0462 17.3544C99.1833 17.3544 100.044 17.7648 100.629 18.5856C101.092 19.2376 101.324 20.044 101.324 21.0016ZM99.6528 20.5592C99.6643 20.0536 99.55 19.6168 99.3124 19.248C99.009 18.7736 98.5428 18.5368 97.9155 18.5368C97.3424 18.5368 96.8762 18.768 96.5202 19.232C96.2283 19.6008 96.0548 20.0432 96.0013 20.5584H99.6528V20.5592Z" fill="black"/>
</svg>
