<svg width="111" height="32" viewBox="0 0 111 32" fill="none" xmlns="http://www.w3.org/2000/svg">
<path d="M8.06215 6.03098C7.82113 6.27698 7.68164 6.65998 7.68164 7.15598V24.848C7.68164 25.344 7.82113 25.727 8.06215 25.973L8.12164 26.027L18.2898 16.117V15.883L8.12164 5.97298L8.06215 6.03098Z" fill="black"/>
<path d="M22.9061 19.4219L19.5205 16.1169V15.8829L22.9103 12.5779L22.9861 12.6209L27.0005 14.8479C28.1461 15.4799 28.1461 16.5199 27.0005 17.1559L22.9861 19.3789L22.9061 19.4219Z" fill="black"/>
<path d="M22.3711 19.9943L18.9054 16.6153L8.67773 26.5883C9.05825 26.9783 9.67876 27.0253 10.3844 26.6353L22.3711 19.9943Z" fill="black"/>
<path d="M22.3711 12.0056L10.3844 5.36465C9.67876 4.97865 9.05825 5.02564 8.67773 5.41564L18.9054 15.3846L22.3711 12.0056Z" fill="black"/>
<path d="M39.0218 8.19482C39.0218 8.86282 38.8167 9.39782 38.4126 9.79682C37.948 10.2698 37.3428 10.5078 36.6013 10.5078C35.8926 10.5078 35.2875 10.2658 34.791 9.78882C34.2936 9.30482 34.0454 8.71082 34.0454 7.99982C34.0454 7.28882 34.2936 6.69482 34.791 6.21482C35.2875 5.73382 35.8926 5.49182 36.6013 5.49182C36.9541 5.49182 37.2905 5.56282 37.6116 5.69482C37.9316 5.82782 38.1921 6.00782 38.3808 6.22982L37.9521 6.65182C37.6228 6.27282 37.1746 6.08582 36.6013 6.08582C36.0844 6.08582 35.6362 6.26182 35.2557 6.61682C34.8793 6.97282 34.6905 7.43382 34.6905 7.99982C34.6905 8.56582 34.8793 9.03082 35.2557 9.38682C35.6362 9.73782 36.0844 9.91782 36.6013 9.91782C37.15 9.91782 37.6116 9.73782 37.9757 9.38282C38.2157 9.14782 38.3521 8.82382 38.388 8.40982H36.6013V7.83182H38.9849C39.0136 7.95682 39.0218 8.07782 39.0218 8.19482Z" fill="black"/>
<path d="M42.8035 6.19081H40.5645V7.71081H42.583V8.28881H40.5645V9.80881H42.8035V10.3978H39.9307V5.60181H42.8035V6.19081Z" fill="black" stroke="black" stroke-width="0.0627687" stroke-miterlimit="10"/>
<path d="M45.472 10.3978H44.8382V6.19081H43.4648V5.60181H46.8464V6.19081H45.472V10.3978Z" fill="black" stroke="black" stroke-width="0.0627687" stroke-miterlimit="10"/>
<path d="M49.2939 10.3978V5.60181H49.9268V10.3978H49.2939Z" fill="black" stroke="black" stroke-width="0.0627687" stroke-miterlimit="10"/>
<path d="M52.7318 10.3978H52.1031V6.19081H50.7246V5.60181H54.1102V6.19081H52.7318V10.3978Z" fill="black" stroke="black" stroke-width="0.0627687" stroke-miterlimit="10"/>
<path d="M60.5121 9.78082C60.027 10.2658 59.426 10.5078 58.7091 10.5078C57.988 10.5078 57.387 10.2658 56.9019 9.78082C56.4178 9.29682 56.1768 8.70282 56.1768 7.99982C56.1768 7.29682 56.4178 6.70282 56.9019 6.21882C57.387 5.73382 57.988 5.49182 58.7091 5.49182C59.4219 5.49182 60.0229 5.73382 60.508 6.22282C60.9963 6.71082 61.2373 7.30082 61.2373 7.99982C61.2373 8.70282 60.9962 9.29682 60.5121 9.78082ZM57.3706 9.37882C57.7357 9.73782 58.1798 9.91782 58.7091 9.91782C59.2342 9.91782 59.6824 9.73782 60.0434 9.37882C60.4075 9.01982 60.5921 8.55882 60.5921 7.99982C60.5921 7.44082 60.4075 6.97982 60.0434 6.62082C59.6824 6.26182 59.2342 6.08182 58.7091 6.08182C58.1798 6.08182 57.7357 6.26182 57.3706 6.62082C57.0065 6.97982 56.8219 7.44082 56.8219 7.99982C56.8219 8.55882 57.0065 9.01982 57.3706 9.37882Z" fill="black" stroke="black" stroke-width="0.0627687" stroke-miterlimit="10"/>
<path d="M62.1265 10.3978V5.60181H62.8957L65.2875 9.33181H65.3152L65.2875 8.40981V5.60181H65.9203V10.3978H65.2598L62.7552 6.48381H62.7275L62.7552 7.40981V10.3978H62.1265Z" fill="black" stroke="black" stroke-width="0.0627687" stroke-miterlimit="10"/>
<path d="M56.0208 17.4021C54.0937 17.4021 52.5193 18.8321 52.5193 20.8051C52.5193 22.7621 54.0937 24.2071 56.0208 24.2071C57.9521 24.2071 59.5265 22.7621 59.5265 20.8051C59.5265 18.8321 57.9521 17.4021 56.0208 17.4021ZM56.0208 22.8671C54.9634 22.8671 54.0537 22.0161 54.0537 20.8051C54.0537 19.5781 54.9634 18.7421 56.0208 18.7421C57.0783 18.7421 57.9921 19.5781 57.9921 20.8051C57.9921 22.0161 57.0783 22.8671 56.0208 22.8671ZM48.3809 17.4021C46.4496 17.4021 44.8793 18.8321 44.8793 20.8051C44.8793 22.7621 46.4496 24.2071 48.3809 24.2071C50.3111 24.2071 51.8824 22.7621 51.8824 20.8051C51.8824 18.8321 50.3111 17.4021 48.3809 17.4021ZM48.3809 22.8671C47.3224 22.8671 46.4096 22.0161 46.4096 20.8051C46.4096 19.5781 47.3224 18.7421 48.3809 18.7421C49.4383 18.7421 50.348 19.5781 50.348 20.8051C50.348 22.0161 49.4383 22.8671 48.3809 22.8671ZM39.2896 18.4451V19.8911H42.8311C42.7275 20.6991 42.4506 21.2931 42.026 21.7071C41.5091 22.2071 40.7039 22.7621 39.2896 22.7621C37.1101 22.7621 35.4034 21.0471 35.4034 18.9221C35.4034 16.7971 37.1101 15.0821 39.2896 15.0821C40.468 15.0821 41.3255 15.5311 41.9583 16.1131L43.0034 15.0941C42.1183 14.2701 40.9409 13.6371 39.2896 13.6371C36.3009 13.6371 33.7891 16.0081 33.7891 18.9221C33.7891 21.8361 36.3009 24.2071 39.2896 24.2071C40.905 24.2071 42.1183 23.6911 43.0721 22.7231C44.0496 21.7701 44.3542 20.4301 44.3542 19.3481C44.3542 19.0121 44.3255 18.7031 44.2742 18.4451H39.2896ZM76.4649 19.5661C76.1767 18.8051 75.2875 17.4021 73.4762 17.4021C71.6814 17.4021 70.187 18.7811 70.187 20.8051C70.187 22.7111 71.666 24.2071 73.6485 24.2071C75.2516 24.2071 76.1767 23.2541 76.5573 22.6991L75.3675 21.9261C74.9706 22.4921 74.4301 22.8671 73.6485 22.8671C72.8721 22.8671 72.3152 22.5201 71.9583 21.8361L76.626 19.9531L76.4649 19.5661ZM71.706 20.6991C71.666 19.3871 72.7511 18.7151 73.5285 18.7151C74.1378 18.7151 74.6547 19.0121 74.827 19.4371L71.706 20.6991ZM67.9121 24.0001H69.4465V14.0001H67.9121V24.0001ZM65.3993 18.1601H65.348C65.0034 17.7621 64.346 17.4021 63.5132 17.4021C61.7655 17.4021 60.1675 18.8981 60.1675 20.8161C60.1675 22.7231 61.7655 24.2071 63.5132 24.2071C64.346 24.2071 65.0034 23.8441 65.348 23.4341H65.3993V23.9221C65.3993 25.2231 64.6865 25.9221 63.5367 25.9221C62.5993 25.9221 62.0178 25.2621 61.7778 24.7071L60.4434 25.2501C60.828 26.1521 61.8465 27.2621 63.5367 27.2621C65.3357 27.2621 66.8537 26.2301 66.8537 23.7191V17.6091H65.3993V18.1601ZM63.6444 22.8671C62.587 22.8671 61.7019 22.0041 61.7019 20.8161C61.7019 19.6171 62.587 18.7421 63.6444 18.7421C64.6865 18.7421 65.508 19.6171 65.508 20.8161C65.508 22.0041 64.6865 22.8671 63.6444 22.8671ZM83.6485 14.0001H79.9788V24.0001H81.5091V20.2111H83.6485C85.348 20.2111 87.0147 19.0121 87.0147 17.1051C87.0147 15.1991 85.3439 14.0001 83.6485 14.0001ZM83.6885 18.8201H81.5091V15.3911H83.6885C84.8311 15.3911 85.4834 16.3161 85.4834 17.1051C85.4834 17.8791 84.8311 18.8201 83.6885 18.8201ZM93.148 17.3831C92.0424 17.3831 90.8926 17.8591 90.4198 18.9141L91.7778 19.4691C92.0701 18.9141 92.6075 18.7341 93.1757 18.7341C93.9696 18.7341 94.7747 19.1991 94.787 20.0201V20.1251C94.5101 19.9691 93.9173 19.7381 93.188 19.7381C91.7255 19.7381 90.2352 20.5231 90.2352 21.9881C90.2352 23.3281 91.4331 24.1911 92.7798 24.1911C93.8096 24.1911 94.3778 23.7381 94.7347 23.2111H94.787V23.9841H96.2649V20.1481C96.2649 18.3751 94.907 17.3831 93.148 17.3831ZM92.9634 22.8631C92.4629 22.8631 91.7655 22.6211 91.7655 22.0161C91.7655 21.2421 92.6352 20.9451 93.388 20.9451C94.0619 20.9451 94.3778 21.0901 94.787 21.2811C94.667 22.2071 93.8496 22.8631 92.9634 22.8631ZM101.65 17.6021L99.8906 21.9371H99.8383L98.0198 17.6021H96.3696L99.1019 23.6601L97.5429 27.0311H99.1419L103.352 17.6021H101.65ZM87.8557 24.0001H89.3901V14.0001H87.8557V24.0001Z" fill="black"/>
</svg>
