<svg width="667" height="181" viewBox="0 0 667 181" fill="none" xmlns="http://www.w3.org/2000/svg">
<path d="M108.506 22.2526C74.25 22.2526 50.5256 48.185 50.5256 79.4908C50.5256 110.797 73.4218 139.941 111.76 139.941C142.229 139.941 157.552 119.966 160.096 114.476L134.301 95.3773C132.171 98.5313 123.296 105.598 112.943 105.598C102.589 105.598 94.543 100.809 92.4131 92.2234H162.581C163.054 89.5367 163.35 84.981 163.35 82.7031C163.35 44.0381 145.423 22.2526 108.565 22.2526H108.506ZM92.4131 69.9706C92.8864 64.3635 97.087 54.084 108.506 54.084C119.155 54.084 124.125 63.3122 124.598 69.9706H92.4131Z" fill="black"/>
<path d="M666 82.7031C666 44.0381 648.074 22.2526 611.215 22.2526C576.96 22.2526 553.235 48.185 553.235 79.4908C553.235 110.797 576.131 139.941 614.469 139.941C644.938 139.941 660.261 119.966 662.805 114.476L637.01 95.3773C634.88 98.5313 626.006 105.598 615.652 105.598C605.299 105.598 597.253 100.809 595.123 92.2234H665.29C665.764 89.5367 666.059 84.981 666.059 82.7031H666ZM595.123 69.9706C595.596 64.3635 599.797 54.084 611.215 54.084C621.865 54.084 626.834 63.3122 627.308 69.9706H595.123Z" fill="black"/>
<path d="M230.973 22.2526C195.593 22.2526 169.739 49.2363 169.739 82.7031C169.739 116.17 195.593 139.941 230.973 139.941C266.352 139.941 292.207 116.112 292.207 82.7031C292.207 49.2947 266.352 22.2526 230.973 22.2526ZM230.973 104.956C219.791 104.956 211.626 95.6693 211.626 81.243C211.626 66.8166 219.732 57.238 230.973 57.238C242.214 57.238 250.319 66.7582 250.319 81.243C250.319 95.7278 242.214 104.956 230.973 104.956Z" fill="black"/>
<path d="M369.532 22.2523C355.747 22.2523 344.565 30.2539 340.542 35.9193V25.4062H301.85V136.729H340.542V69.9118C340.542 63.604 345.394 57.1792 353.44 57.1792C360.184 57.1792 366.337 61.5013 366.337 69.9118V136.729H408.225V63.5455C408.225 38.022 396.037 22.1938 369.532 22.1938V22.2523Z" fill="black"/>
<path d="M466.206 25.4655H424.318V136.788H466.206V25.4655Z" fill="black"/>
<path d="M526.965 0H488.273V25.4652H478.629V57.2966H488.273V98.6483C488.273 128.319 501.348 140 530.16 140C540.336 140 546.252 136.846 546.252 136.846V105.015H542.229C535.899 105.015 526.965 103.963 526.965 96.2537V57.2966H546.312V25.4652H526.965V0Z" fill="black"/>
<path d="M445.263 22.2528C457.747 22.2528 467.804 12.2653 467.804 0H422.663C422.663 12.3237 432.78 22.2528 445.204 22.2528H445.263Z" fill="black"/>
<path d="M28.99 96.1952V57.2382H41.8875V25.4068H28.99V0H0V129.954C6.86293 136.904 17.5123 140 32.2439 140C42.42 140 48.3363 136.846 48.3363 136.846V105.015H44.3132C37.9828 105.015 29.0491 104.022 29.0491 96.2537L28.99 96.1952Z" fill="black"/>
<path d="M71.772 154.224L67.02 171H65.148L60.924 156.696L56.604 171L54.78 171.024L50.124 154.224H51.924L55.764 168.936L60.06 154.224H61.932L66.108 168.936L69.972 154.224H71.772ZM86.1979 163.776C86.1979 164.352 86.1819 164.792 86.1499 165.096H75.2779C75.3259 166.088 75.5659 166.936 75.9979 167.64C76.4299 168.344 76.9979 168.88 77.7019 169.248C78.4059 169.6 79.1739 169.776 80.0059 169.776C81.0939 169.776 82.0059 169.512 82.7419 168.984C83.4939 168.456 83.9899 167.744 84.2299 166.848H86.0059C85.6859 168.128 84.9979 169.176 83.9419 169.992C82.9019 170.792 81.5899 171.192 80.0059 171.192C78.7739 171.192 77.6699 170.92 76.6939 170.376C75.7179 169.816 74.9499 169.032 74.3899 168.024C73.8459 167 73.5739 165.808 73.5739 164.448C73.5739 163.088 73.8459 161.896 74.3899 160.872C74.9339 159.848 75.6939 159.064 76.6699 158.52C77.6459 157.976 78.7579 157.704 80.0059 157.704C81.2539 157.704 82.3419 157.976 83.2699 158.52C84.2139 159.064 84.9339 159.8 85.4299 160.728C85.9419 161.64 86.1979 162.656 86.1979 163.776ZM84.4939 163.728C84.5099 162.752 84.3099 161.92 83.8939 161.232C83.4939 160.544 82.9419 160.024 82.2379 159.672C81.5339 159.32 80.7659 159.144 79.9339 159.144C78.6859 159.144 77.6219 159.544 76.7419 160.344C75.8619 161.144 75.3739 162.272 75.2779 163.728H84.4939ZM97.5135 160.8C97.9455 159.888 98.6095 159.144 99.5055 158.568C100.418 157.992 101.49 157.704 102.722 157.704C103.922 157.704 104.994 157.984 105.938 158.544C106.882 159.088 107.618 159.872 108.146 160.896C108.69 161.904 108.962 163.08 108.962 164.424C108.962 165.768 108.69 166.952 108.146 167.976C107.618 169 106.874 169.792 105.914 170.352C104.97 170.912 103.906 171.192 102.722 171.192C101.474 171.192 100.394 170.912 99.4815 170.352C98.5855 169.776 97.9295 169.032 97.5135 168.12V171H95.8575V153.24H97.5135V160.8ZM107.258 164.424C107.258 163.336 107.042 162.4 106.609 161.616C106.194 160.816 105.618 160.208 104.882 159.792C104.146 159.376 103.314 159.168 102.386 159.168C101.49 159.168 100.666 159.384 99.9135 159.816C99.1775 160.248 98.5935 160.864 98.1615 161.664C97.7295 162.464 97.5135 163.392 97.5135 164.448C97.5135 165.504 97.7295 166.432 98.1615 167.232C98.5935 168.032 99.1775 168.648 99.9135 169.08C100.666 169.512 101.49 169.728 102.386 169.728C103.314 169.728 104.146 169.52 104.882 169.104C105.618 168.672 106.194 168.056 106.609 167.256C107.042 166.44 107.258 165.496 107.258 164.424ZM123.405 157.896V171H121.725V168.696C121.341 169.512 120.749 170.136 119.949 170.568C119.149 171 118.253 171.216 117.261 171.216C115.693 171.216 114.413 170.736 113.421 169.776C112.429 168.8 111.933 167.392 111.933 165.552V157.896H113.589V165.36C113.589 166.784 113.941 167.872 114.645 168.624C115.365 169.376 116.341 169.752 117.573 169.752C118.837 169.752 119.845 169.352 120.597 168.552C121.349 167.752 121.725 166.576 121.725 165.024V157.896H123.405ZM128.08 155.424C127.744 155.424 127.456 155.304 127.216 155.064C126.976 154.824 126.856 154.528 126.856 154.176C126.856 153.824 126.976 153.536 127.216 153.312C127.456 153.072 127.744 152.952 128.08 152.952C128.416 152.952 128.704 153.072 128.944 153.312C129.184 153.536 129.304 153.824 129.304 154.176C129.304 154.528 129.184 154.824 128.944 155.064C128.704 155.304 128.416 155.424 128.08 155.424ZM128.92 157.896V171H127.24V157.896H128.92ZM134.405 153.24V171H132.725V153.24H134.405ZM137.441 164.424C137.441 163.08 137.713 161.904 138.257 160.896C138.801 159.872 139.545 159.088 140.489 158.544C141.449 157.984 142.529 157.704 143.729 157.704C144.881 157.704 145.921 157.984 146.849 158.544C147.777 159.104 148.457 159.832 148.889 160.728V153.24H150.569V171H148.889V168.072C148.489 168.984 147.833 169.736 146.921 170.328C146.009 170.904 144.937 171.192 143.705 171.192C142.505 171.192 141.425 170.912 140.465 170.352C139.521 169.792 138.777 169 138.233 167.976C137.705 166.952 137.441 165.768 137.441 164.424ZM148.889 164.448C148.889 163.392 148.673 162.464 148.241 161.664C147.809 160.864 147.217 160.248 146.465 159.816C145.729 159.384 144.913 159.168 144.017 159.168C143.089 159.168 142.257 159.376 141.521 159.792C140.785 160.208 140.201 160.816 139.769 161.616C139.353 162.4 139.145 163.336 139.145 164.424C139.145 165.496 139.353 166.44 139.769 167.256C140.201 168.056 140.785 168.672 141.521 169.104C142.257 169.52 143.089 169.728 144.017 169.728C144.913 169.728 145.729 169.512 146.465 169.08C147.217 168.648 147.809 168.032 148.241 167.232C148.673 166.432 148.889 165.504 148.889 164.448ZM160.222 164.424C160.222 163.08 160.494 161.904 161.038 160.896C161.582 159.872 162.326 159.088 163.27 158.544C164.23 157.984 165.31 157.704 166.51 157.704C167.662 157.704 168.702 157.984 169.63 158.544C170.558 159.104 171.238 159.832 171.67 160.728V153.24H173.35V171H171.67V168.072C171.27 168.984 170.614 169.736 169.702 170.328C168.79 170.904 167.718 171.192 166.486 171.192C165.286 171.192 164.206 170.912 163.246 170.352C162.302 169.792 161.558 169 161.014 167.976C160.486 166.952 160.222 165.768 160.222 164.424ZM171.67 164.448C171.67 163.392 171.454 162.464 171.022 161.664C170.59 160.864 169.998 160.248 169.246 159.816C168.51 159.384 167.694 159.168 166.798 159.168C165.87 159.168 165.038 159.376 164.302 159.792C163.566 160.208 162.982 160.816 162.55 161.616C162.134 162.4 161.926 163.336 161.926 164.424C161.926 165.496 162.134 166.44 162.55 167.256C162.982 168.056 163.566 168.672 164.302 169.104C165.038 169.52 165.87 169.728 166.798 169.728C167.694 169.728 168.51 169.512 169.246 169.08C169.998 168.648 170.59 168.032 171.022 167.232C171.454 166.432 171.67 165.504 171.67 164.448ZM189.042 163.776C189.042 164.352 189.026 164.792 188.994 165.096H178.122C178.17 166.088 178.41 166.936 178.842 167.64C179.274 168.344 179.842 168.88 180.546 169.248C181.25 169.6 182.018 169.776 182.85 169.776C183.938 169.776 184.85 169.512 185.586 168.984C186.338 168.456 186.834 167.744 187.074 166.848H188.85C188.53 168.128 187.842 169.176 186.786 169.992C185.746 170.792 184.434 171.192 182.85 171.192C181.618 171.192 180.514 170.92 179.538 170.376C178.562 169.816 177.794 169.032 177.234 168.024C176.69 167 176.418 165.808 176.418 164.448C176.418 163.088 176.69 161.896 177.234 160.872C177.778 159.848 178.538 159.064 179.514 158.52C180.49 157.976 181.602 157.704 182.85 157.704C184.098 157.704 185.186 157.976 186.114 158.52C187.058 159.064 187.778 159.8 188.274 160.728C188.786 161.64 189.042 162.656 189.042 163.776ZM187.338 163.728C187.354 162.752 187.154 161.92 186.738 161.232C186.338 160.544 185.786 160.024 185.082 159.672C184.378 159.32 183.61 159.144 182.778 159.144C181.53 159.144 180.466 159.544 179.586 160.344C178.706 161.144 178.218 162.272 178.122 163.728H187.338ZM203.971 163.776C203.971 164.352 203.955 164.792 203.923 165.096H193.051C193.099 166.088 193.339 166.936 193.771 167.64C194.203 168.344 194.771 168.88 195.475 169.248C196.179 169.6 196.947 169.776 197.779 169.776C198.867 169.776 199.779 169.512 200.515 168.984C201.267 168.456 201.763 167.744 202.003 166.848H203.779C203.459 168.128 202.771 169.176 201.715 169.992C200.675 170.792 199.363 171.192 197.779 171.192C196.547 171.192 195.443 170.92 194.467 170.376C193.491 169.816 192.723 169.032 192.163 168.024C191.619 167 191.347 165.808 191.347 164.448C191.347 163.088 191.619 161.896 192.163 160.872C192.707 159.848 193.467 159.064 194.443 158.52C195.419 157.976 196.531 157.704 197.779 157.704C199.027 157.704 200.115 157.976 201.043 158.52C201.987 159.064 202.707 159.8 203.203 160.728C203.715 161.64 203.971 162.656 203.971 163.776ZM202.267 163.728C202.283 162.752 202.083 161.92 201.667 161.232C201.267 160.544 200.715 160.024 200.011 159.672C199.307 159.32 198.539 159.144 197.707 159.144C196.459 159.144 195.395 159.544 194.515 160.344C193.635 161.144 193.147 162.272 193.051 163.728H202.267ZM208.701 160.776C209.117 159.896 209.773 159.168 210.669 158.592C211.581 158 212.661 157.704 213.909 157.704C215.093 157.704 216.157 157.984 217.101 158.544C218.061 159.088 218.805 159.872 219.333 160.896C219.877 161.904 220.149 163.08 220.149 164.424C220.149 165.768 219.877 166.952 219.333 167.976C218.805 169 218.061 169.792 217.101 170.352C216.157 170.912 215.093 171.192 213.909 171.192C212.677 171.192 211.605 170.904 210.693 170.328C209.781 169.736 209.117 169 208.701 168.12V177.192H207.045V157.896H208.701V160.776ZM218.445 164.424C218.445 163.336 218.229 162.4 217.797 161.616C217.381 160.816 216.805 160.208 216.069 159.792C215.333 159.376 214.501 159.168 213.573 159.168C212.677 159.168 211.853 159.384 211.101 159.816C210.365 160.248 209.781 160.864 209.349 161.664C208.917 162.464 208.701 163.392 208.701 164.448C208.701 165.504 208.917 166.432 209.349 167.232C209.781 168.032 210.365 168.648 211.101 169.08C211.853 169.512 212.677 169.728 213.573 169.728C214.501 169.728 215.333 169.52 216.069 169.104C216.805 168.672 217.381 168.056 217.797 167.256C218.229 166.44 218.445 165.496 218.445 164.424ZM225.424 159.312V167.448C225.424 168.248 225.576 168.8 225.88 169.104C226.184 169.408 226.72 169.56 227.488 169.56H229.024V171H227.224C226.04 171 225.16 170.728 224.584 170.184C224.008 169.624 223.72 168.712 223.72 167.448V159.312H221.896V157.896H223.72V154.608H225.424V157.896H229.024V159.312H225.424ZM243.651 163.776C243.651 164.352 243.635 164.792 243.603 165.096H232.731C232.779 166.088 233.019 166.936 233.451 167.64C233.883 168.344 234.451 168.88 235.155 169.248C235.859 169.6 236.627 169.776 237.459 169.776C238.547 169.776 239.459 169.512 240.195 168.984C240.947 168.456 241.443 167.744 241.683 166.848H243.459C243.139 168.128 242.451 169.176 241.395 169.992C240.355 170.792 239.043 171.192 237.459 171.192C236.227 171.192 235.123 170.92 234.147 170.376C233.171 169.816 232.403 169.032 231.843 168.024C231.299 167 231.027 165.808 231.027 164.448C231.027 163.088 231.299 161.896 231.843 160.872C232.387 159.848 233.147 159.064 234.123 158.52C235.099 157.976 236.211 157.704 237.459 157.704C238.707 157.704 239.795 157.976 240.723 158.52C241.667 159.064 242.387 159.8 242.883 160.728C243.395 161.64 243.651 162.656 243.651 163.776ZM241.947 163.728C241.963 162.752 241.763 161.92 241.347 161.232C240.947 160.544 240.395 160.024 239.691 159.672C238.987 159.32 238.219 159.144 237.387 159.144C236.139 159.144 235.075 159.544 234.195 160.344C233.315 161.144 232.827 162.272 232.731 163.728H241.947ZM245.957 164.448C245.957 163.088 246.229 161.904 246.773 160.896C247.317 159.872 248.069 159.088 249.029 158.544C249.989 157.984 251.085 157.704 252.317 157.704C253.933 157.704 255.261 158.104 256.301 158.904C257.357 159.704 258.037 160.792 258.341 162.168H256.541C256.317 161.224 255.829 160.488 255.077 159.96C254.341 159.416 253.421 159.144 252.317 159.144C251.437 159.144 250.645 159.344 249.941 159.744C249.237 160.144 248.677 160.744 248.261 161.544C247.861 162.328 247.661 163.296 247.661 164.448C247.661 165.6 247.861 166.576 248.261 167.376C248.677 168.176 249.237 168.776 249.941 169.176C250.645 169.576 251.437 169.776 252.317 169.776C253.421 169.776 254.341 169.512 255.077 168.984C255.829 168.44 256.317 167.688 256.541 166.728H258.341C258.037 168.072 257.357 169.152 256.301 169.968C255.245 170.784 253.917 171.192 252.317 171.192C251.085 171.192 249.989 170.92 249.029 170.376C248.069 169.816 247.317 169.032 246.773 168.024C246.229 167 245.957 165.808 245.957 164.448ZM267.683 157.656C268.675 157.656 269.563 157.864 270.347 158.28C271.147 158.696 271.771 159.336 272.219 160.2C272.683 161.048 272.915 162.088 272.915 163.32V171H271.259V163.512C271.259 162.088 270.899 161 270.179 160.248C269.475 159.496 268.507 159.12 267.275 159.12C266.011 159.12 265.003 159.52 264.251 160.32C263.499 161.12 263.123 162.296 263.123 163.848V171H261.443V153.24H263.123V160.128C263.539 159.344 264.147 158.736 264.947 158.304C265.763 157.872 266.675 157.656 267.683 157.656ZM282.449 164.424C282.449 163.08 282.713 161.904 283.241 160.896C283.785 159.872 284.529 159.088 285.473 158.544C286.433 157.984 287.513 157.704 288.713 157.704C289.961 157.704 291.033 157.992 291.929 158.568C292.841 159.144 293.497 159.88 293.897 160.776V157.896H295.577V171H293.897V168.096C293.481 168.992 292.817 169.736 291.905 170.328C291.009 170.904 289.937 171.192 288.689 171.192C287.505 171.192 286.433 170.912 285.473 170.352C284.529 169.792 283.785 169 283.241 167.976C282.713 166.952 282.449 165.768 282.449 164.424ZM293.897 164.448C293.897 163.392 293.681 162.464 293.249 161.664C292.817 160.864 292.225 160.248 291.473 159.816C290.737 159.384 289.921 159.168 289.025 159.168C288.097 159.168 287.265 159.376 286.529 159.792C285.793 160.208 285.209 160.816 284.777 161.616C284.361 162.4 284.153 163.336 284.153 164.424C284.153 165.496 284.361 166.44 284.777 167.256C285.209 168.056 285.793 168.672 286.529 169.104C287.265 169.52 288.097 169.728 289.025 169.728C289.921 169.728 290.737 169.512 291.473 169.08C292.225 168.648 292.817 168.032 293.249 167.232C293.681 166.432 293.897 165.504 293.897 164.448ZM305.556 157.656C307.124 157.656 308.404 158.144 309.396 159.12C310.388 160.08 310.884 161.48 310.884 163.32V171H309.228V163.512C309.228 162.088 308.868 161 308.148 160.248C307.444 159.496 306.476 159.12 305.244 159.12C303.98 159.12 302.972 159.52 302.22 160.32C301.468 161.12 301.092 162.296 301.092 163.848V171H299.412V157.896H301.092V160.128C301.508 159.328 302.108 158.72 302.892 158.304C303.676 157.872 304.564 157.656 305.556 157.656ZM313.832 164.424C313.832 163.08 314.104 161.904 314.648 160.896C315.192 159.872 315.936 159.088 316.88 158.544C317.84 157.984 318.92 157.704 320.12 157.704C321.272 157.704 322.312 157.984 323.24 158.544C324.168 159.104 324.848 159.832 325.28 160.728V153.24H326.96V171H325.28V168.072C324.88 168.984 324.224 169.736 323.312 170.328C322.4 170.904 321.328 171.192 320.096 171.192C318.896 171.192 317.816 170.912 316.856 170.352C315.912 169.792 315.168 169 314.624 167.976C314.096 166.952 313.832 165.768 313.832 164.424ZM325.28 164.448C325.28 163.392 325.064 162.464 324.632 161.664C324.2 160.864 323.608 160.248 322.856 159.816C322.12 159.384 321.304 159.168 320.408 159.168C319.48 159.168 318.648 159.376 317.912 159.792C317.176 160.208 316.592 160.816 316.16 161.616C315.744 162.4 315.536 163.336 315.536 164.424C315.536 165.496 315.744 166.44 316.16 167.256C316.592 168.056 317.176 168.672 317.912 169.104C318.648 169.52 319.48 169.728 320.408 169.728C321.304 169.728 322.12 169.512 322.856 169.08C323.608 168.648 324.2 168.032 324.632 167.232C325.064 166.432 325.28 165.504 325.28 164.448ZM352.981 157.656C354.517 157.656 355.765 158.144 356.725 159.12C357.701 160.08 358.189 161.48 358.189 163.32V171H356.533V163.512C356.533 162.088 356.189 161 355.501 160.248C354.813 159.496 353.877 159.12 352.693 159.12C351.461 159.12 350.477 159.528 349.741 160.344C349.005 161.16 348.637 162.344 348.637 163.896V171H346.981V163.512C346.981 162.088 346.637 161 345.949 160.248C345.261 159.496 344.317 159.12 343.117 159.12C341.885 159.12 340.901 159.528 340.165 160.344C339.429 161.16 339.061 162.344 339.061 163.896V171H337.381V157.896H339.061V160.152C339.477 159.336 340.069 158.72 340.837 158.304C341.605 157.872 342.461 157.656 343.405 157.656C344.541 157.656 345.533 157.928 346.381 158.472C347.245 159.016 347.869 159.816 348.253 160.872C348.605 159.832 349.205 159.04 350.053 158.496C350.917 157.936 351.893 157.656 352.981 157.656ZM362.76 155.424C362.424 155.424 362.136 155.304 361.896 155.064C361.656 154.824 361.536 154.528 361.536 154.176C361.536 153.824 361.656 153.536 361.896 153.312C362.136 153.072 362.424 152.952 362.76 152.952C363.096 152.952 363.384 153.072 363.624 153.312C363.864 153.536 363.984 153.824 363.984 154.176C363.984 154.528 363.864 154.824 363.624 155.064C363.384 155.304 363.096 155.424 362.76 155.424ZM363.6 157.896V171H361.92V157.896H363.6ZM371.916 171.192C370.412 171.192 369.18 170.848 368.22 170.16C367.276 169.456 366.748 168.504 366.636 167.304H368.364C368.444 168.04 368.788 168.64 369.396 169.104C370.02 169.552 370.852 169.776 371.892 169.776C372.804 169.776 373.516 169.56 374.028 169.128C374.556 168.696 374.82 168.16 374.82 167.52C374.82 167.072 374.676 166.704 374.388 166.416C374.1 166.128 373.732 165.904 373.284 165.744C372.852 165.568 372.26 165.384 371.508 165.192C370.532 164.936 369.74 164.68 369.132 164.424C368.524 164.168 368.004 163.792 367.572 163.296C367.156 162.784 366.948 162.104 366.948 161.256C366.948 160.616 367.14 160.024 367.524 159.48C367.908 158.936 368.452 158.504 369.156 158.184C369.86 157.864 370.66 157.704 371.556 157.704C372.964 157.704 374.1 158.064 374.964 158.784C375.828 159.488 376.292 160.464 376.356 161.712H374.676C374.628 160.944 374.324 160.328 373.764 159.864C373.22 159.384 372.468 159.144 371.508 159.144C370.66 159.144 369.972 159.344 369.444 159.744C368.916 160.144 368.652 160.64 368.652 161.232C368.652 161.744 368.804 162.168 369.108 162.504C369.428 162.824 369.82 163.08 370.284 163.272C370.748 163.448 371.372 163.648 372.156 163.872C373.1 164.128 373.852 164.376 374.412 164.616C374.972 164.856 375.452 165.208 375.852 165.672C376.252 166.136 376.46 166.752 376.476 167.52C376.476 168.224 376.284 168.856 375.9 169.416C375.516 169.96 374.98 170.392 374.292 170.712C373.604 171.032 372.812 171.192 371.916 171.192ZM384.151 171.192C382.647 171.192 381.415 170.848 380.455 170.16C379.511 169.456 378.983 168.504 378.871 167.304H380.599C380.679 168.04 381.023 168.64 381.631 169.104C382.255 169.552 383.087 169.776 384.127 169.776C385.039 169.776 385.751 169.56 386.263 169.128C386.791 168.696 387.055 168.16 387.055 167.52C387.055 167.072 386.911 166.704 386.623 166.416C386.335 166.128 385.967 165.904 385.519 165.744C385.087 165.568 384.495 165.384 383.743 165.192C382.767 164.936 381.975 164.68 381.367 164.424C380.759 164.168 380.239 163.792 379.807 163.296C379.391 162.784 379.183 162.104 379.183 161.256C379.183 160.616 379.375 160.024 379.759 159.48C380.143 158.936 380.687 158.504 381.391 158.184C382.095 157.864 382.895 157.704 383.791 157.704C385.199 157.704 386.335 158.064 387.199 158.784C388.063 159.488 388.527 160.464 388.591 161.712H386.911C386.863 160.944 386.559 160.328 385.999 159.864C385.455 159.384 384.703 159.144 383.743 159.144C382.895 159.144 382.207 159.344 381.679 159.744C381.151 160.144 380.887 160.64 380.887 161.232C380.887 161.744 381.039 162.168 381.343 162.504C381.663 162.824 382.055 163.08 382.519 163.272C382.983 163.448 383.607 163.648 384.391 163.872C385.335 164.128 386.087 164.376 386.647 164.616C387.207 164.856 387.687 165.208 388.087 165.672C388.487 166.136 388.695 166.752 388.711 167.52C388.711 168.224 388.519 168.856 388.135 169.416C387.751 169.96 387.215 170.392 386.527 170.712C385.839 171.032 385.047 171.192 384.151 171.192ZM392.713 155.424C392.377 155.424 392.089 155.304 391.849 155.064C391.609 154.824 391.489 154.528 391.489 154.176C391.489 153.824 391.609 153.536 391.849 153.312C392.089 153.072 392.377 152.952 392.713 152.952C393.049 152.952 393.337 153.072 393.577 153.312C393.817 153.536 393.937 153.824 393.937 154.176C393.937 154.528 393.817 154.824 393.577 155.064C393.337 155.304 393.049 155.424 392.713 155.424ZM393.553 157.896V171H391.873V157.896H393.553ZM403.094 171.192C401.862 171.192 400.75 170.92 399.758 170.376C398.782 169.816 398.006 169.032 397.43 168.024C396.87 167 396.59 165.808 396.59 164.448C396.59 163.088 396.878 161.904 397.454 160.896C398.03 159.872 398.814 159.088 399.806 158.544C400.798 157.984 401.91 157.704 403.142 157.704C404.374 157.704 405.486 157.984 406.478 158.544C407.486 159.088 408.27 159.872 408.83 160.896C409.406 161.904 409.694 163.088 409.694 164.448C409.694 165.792 409.406 166.976 408.83 168C408.254 169.024 407.462 169.816 406.454 170.376C405.446 170.92 404.326 171.192 403.094 171.192ZM403.094 169.728C403.958 169.728 404.758 169.536 405.494 169.152C406.23 168.752 406.822 168.16 407.27 167.376C407.734 166.576 407.966 165.6 407.966 164.448C407.966 163.296 407.742 162.328 407.294 161.544C406.846 160.744 406.254 160.152 405.518 159.768C404.782 159.368 403.982 159.168 403.118 159.168C402.254 159.168 401.454 159.368 400.718 159.768C399.982 160.152 399.39 160.744 398.942 161.544C398.51 162.328 398.294 163.296 398.294 164.448C398.294 165.6 398.51 166.576 398.942 167.376C399.39 168.16 399.974 168.752 400.694 169.152C401.43 169.536 402.23 169.728 403.094 169.728ZM418.9 157.656C420.468 157.656 421.748 158.144 422.74 159.12C423.732 160.08 424.228 161.48 424.228 163.32V171H422.572V163.512C422.572 162.088 422.212 161 421.492 160.248C420.788 159.496 419.82 159.12 418.588 159.12C417.324 159.12 416.316 159.52 415.564 160.32C414.812 161.12 414.436 162.296 414.436 163.848V171H412.756V157.896H414.436V160.128C414.852 159.328 415.452 158.72 416.236 158.304C417.02 157.872 417.908 157.656 418.9 157.656ZM433.761 164.448C433.761 163.088 434.033 161.904 434.577 160.896C435.121 159.872 435.873 159.088 436.833 158.544C437.793 157.984 438.889 157.704 440.121 157.704C441.737 157.704 443.065 158.104 444.105 158.904C445.161 159.704 445.841 160.792 446.145 162.168H444.345C444.121 161.224 443.633 160.488 442.881 159.96C442.145 159.416 441.225 159.144 440.121 159.144C439.241 159.144 438.449 159.344 437.745 159.744C437.041 160.144 436.481 160.744 436.065 161.544C435.665 162.328 435.465 163.296 435.465 164.448C435.465 165.6 435.665 166.576 436.065 167.376C436.481 168.176 437.041 168.776 437.745 169.176C438.449 169.576 439.241 169.776 440.121 169.776C441.225 169.776 442.145 169.512 442.881 168.984C443.633 168.44 444.121 167.688 444.345 166.728H446.145C445.841 168.072 445.161 169.152 444.105 169.968C443.049 170.784 441.721 171.192 440.121 171.192C438.889 171.192 437.793 170.92 436.833 170.376C435.873 169.816 435.121 169.032 434.577 168.024C434.033 167 433.761 165.808 433.761 164.448ZM450.928 160.224C451.296 159.408 451.856 158.776 452.608 158.328C453.376 157.88 454.312 157.656 455.416 157.656V159.408H454.96C453.744 159.408 452.768 159.736 452.032 160.392C451.296 161.048 450.928 162.144 450.928 163.68V171H449.248V157.896H450.928V160.224ZM458.783 155.424C458.447 155.424 458.159 155.304 457.919 155.064C457.679 154.824 457.559 154.528 457.559 154.176C457.559 153.824 457.679 153.536 457.919 153.312C458.159 153.072 458.447 152.952 458.783 152.952C459.119 152.952 459.407 153.072 459.647 153.312C459.887 153.536 460.007 153.824 460.007 154.176C460.007 154.528 459.887 154.824 459.647 155.064C459.407 155.304 459.119 155.424 458.783 155.424ZM459.623 157.896V171H457.943V157.896H459.623ZM465.612 159.312V167.448C465.612 168.248 465.764 168.8 466.068 169.104C466.372 169.408 466.908 169.56 467.676 169.56H469.212V171H467.412C466.228 171 465.348 170.728 464.772 170.184C464.196 169.624 463.908 168.712 463.908 167.448V159.312H462.084V157.896H463.908V154.608H465.612V157.896H469.212V159.312H465.612ZM472.823 155.424C472.487 155.424 472.199 155.304 471.959 155.064C471.719 154.824 471.599 154.528 471.599 154.176C471.599 153.824 471.719 153.536 471.959 153.312C472.199 153.072 472.487 152.952 472.823 152.952C473.159 152.952 473.447 153.072 473.687 153.312C473.927 153.536 474.047 153.824 474.047 154.176C474.047 154.528 473.927 154.824 473.687 155.064C473.447 155.304 473.159 155.424 472.823 155.424ZM473.663 157.896V171H471.983V157.896H473.663ZM476.699 164.448C476.699 163.088 476.971 161.904 477.515 160.896C478.059 159.872 478.811 159.088 479.771 158.544C480.731 157.984 481.827 157.704 483.059 157.704C484.675 157.704 486.003 158.104 487.043 158.904C488.099 159.704 488.779 160.792 489.083 162.168H487.283C487.059 161.224 486.571 160.488 485.819 159.96C485.083 159.416 484.163 159.144 483.059 159.144C482.179 159.144 481.387 159.344 480.683 159.744C479.979 160.144 479.419 160.744 479.003 161.544C478.603 162.328 478.403 163.296 478.403 164.448C478.403 165.6 478.603 166.576 479.003 167.376C479.419 168.176 479.979 168.776 480.683 169.176C481.387 169.576 482.179 169.776 483.059 169.776C484.163 169.776 485.083 169.512 485.819 168.984C486.571 168.44 487.059 167.688 487.283 166.728H489.083C488.779 168.072 488.099 169.152 487.043 169.968C485.987 170.784 484.659 171.192 483.059 171.192C481.827 171.192 480.731 170.92 479.771 170.376C478.811 169.816 478.059 169.032 477.515 168.024C476.971 167 476.699 165.808 476.699 164.448ZM491.418 164.424C491.418 163.08 491.682 161.904 492.21 160.896C492.754 159.872 493.498 159.088 494.442 158.544C495.402 157.984 496.482 157.704 497.682 157.704C498.93 157.704 500.002 157.992 500.898 158.568C501.81 159.144 502.466 159.88 502.866 160.776V157.896H504.546V171H502.866V168.096C502.45 168.992 501.786 169.736 500.874 170.328C499.978 170.904 498.906 171.192 497.658 171.192C496.474 171.192 495.402 170.912 494.442 170.352C493.498 169.792 492.754 169 492.21 167.976C491.682 166.952 491.418 165.768 491.418 164.424ZM502.866 164.448C502.866 163.392 502.65 162.464 502.218 161.664C501.786 160.864 501.194 160.248 500.442 159.816C499.706 159.384 498.89 159.168 497.994 159.168C497.066 159.168 496.234 159.376 495.498 159.792C494.762 160.208 494.178 160.816 493.746 161.616C493.33 162.4 493.122 163.336 493.122 164.424C493.122 165.496 493.33 166.44 493.746 167.256C494.178 168.056 494.762 168.672 495.498 169.104C496.234 169.52 497.066 169.728 497.994 169.728C498.89 169.728 499.706 169.512 500.442 169.08C501.194 168.648 501.786 168.032 502.218 167.232C502.65 166.432 502.866 165.504 502.866 164.448ZM510.061 153.24V171H508.381V153.24H510.061ZM524.963 171.192C523.459 171.192 522.227 170.848 521.267 170.16C520.323 169.456 519.795 168.504 519.683 167.304H521.411C521.491 168.04 521.835 168.64 522.443 169.104C523.067 169.552 523.899 169.776 524.939 169.776C525.851 169.776 526.563 169.56 527.075 169.128C527.603 168.696 527.867 168.16 527.867 167.52C527.867 167.072 527.723 166.704 527.435 166.416C527.147 166.128 526.779 165.904 526.331 165.744C525.899 165.568 525.307 165.384 524.555 165.192C523.579 164.936 522.787 164.68 522.179 164.424C521.571 164.168 521.051 163.792 520.619 163.296C520.203 162.784 519.995 162.104 519.995 161.256C519.995 160.616 520.187 160.024 520.571 159.48C520.955 158.936 521.499 158.504 522.203 158.184C522.907 157.864 523.707 157.704 524.603 157.704C526.011 157.704 527.147 158.064 528.011 158.784C528.875 159.488 529.339 160.464 529.403 161.712H527.723C527.675 160.944 527.371 160.328 526.811 159.864C526.267 159.384 525.515 159.144 524.555 159.144C523.707 159.144 523.019 159.344 522.491 159.744C521.963 160.144 521.699 160.64 521.699 161.232C521.699 161.744 521.851 162.168 522.155 162.504C522.475 162.824 522.867 163.08 523.331 163.272C523.795 163.448 524.419 163.648 525.203 163.872C526.147 164.128 526.899 164.376 527.459 164.616C528.019 164.856 528.499 165.208 528.899 165.672C529.299 166.136 529.507 166.752 529.523 167.52C529.523 168.224 529.331 168.856 528.947 169.416C528.563 169.96 528.027 170.392 527.339 170.712C526.651 171.032 525.859 171.192 524.963 171.192ZM543.486 157.896L535.71 177.168H533.958L536.502 170.928L531.126 157.896H532.974L537.438 169.08L541.758 157.896H543.486ZM550.276 171.192C548.772 171.192 547.54 170.848 546.58 170.16C545.636 169.456 545.108 168.504 544.996 167.304H546.724C546.804 168.04 547.148 168.64 547.756 169.104C548.38 169.552 549.212 169.776 550.252 169.776C551.164 169.776 551.876 169.56 552.388 169.128C552.916 168.696 553.18 168.16 553.18 167.52C553.18 167.072 553.036 166.704 552.748 166.416C552.46 166.128 552.092 165.904 551.644 165.744C551.212 165.568 550.62 165.384 549.868 165.192C548.892 164.936 548.1 164.68 547.492 164.424C546.884 164.168 546.364 163.792 545.932 163.296C545.516 162.784 545.308 162.104 545.308 161.256C545.308 160.616 545.5 160.024 545.884 159.48C546.268 158.936 546.812 158.504 547.516 158.184C548.22 157.864 549.02 157.704 549.916 157.704C551.324 157.704 552.46 158.064 553.324 158.784C554.188 159.488 554.652 160.464 554.716 161.712H553.036C552.988 160.944 552.684 160.328 552.124 159.864C551.58 159.384 550.828 159.144 549.868 159.144C549.02 159.144 548.332 159.344 547.804 159.744C547.276 160.144 547.012 160.64 547.012 161.232C547.012 161.744 547.164 162.168 547.468 162.504C547.788 162.824 548.18 163.08 548.644 163.272C549.108 163.448 549.732 163.648 550.516 163.872C551.46 164.128 552.212 164.376 552.772 164.616C553.332 164.856 553.812 165.208 554.212 165.672C554.612 166.136 554.82 166.752 554.836 167.52C554.836 168.224 554.644 168.856 554.26 169.416C553.876 169.96 553.34 170.392 552.652 170.712C551.964 171.032 551.172 171.192 550.276 171.192ZM560.182 159.312V167.448C560.182 168.248 560.334 168.8 560.638 169.104C560.942 169.408 561.478 169.56 562.246 169.56H563.782V171H561.982C560.798 171 559.918 170.728 559.342 170.184C558.766 169.624 558.478 168.712 558.478 167.448V159.312H556.654V157.896H558.478V154.608H560.182V157.896H563.782V159.312H560.182ZM578.409 163.776C578.409 164.352 578.393 164.792 578.361 165.096H567.489C567.537 166.088 567.777 166.936 568.209 167.64C568.641 168.344 569.209 168.88 569.913 169.248C570.617 169.6 571.385 169.776 572.217 169.776C573.305 169.776 574.217 169.512 574.953 168.984C575.705 168.456 576.201 167.744 576.441 166.848H578.217C577.897 168.128 577.209 169.176 576.153 169.992C575.113 170.792 573.801 171.192 572.217 171.192C570.985 171.192 569.881 170.92 568.905 170.376C567.929 169.816 567.161 169.032 566.601 168.024C566.057 167 565.785 165.808 565.785 164.448C565.785 163.088 566.057 161.896 566.601 160.872C567.145 159.848 567.905 159.064 568.881 158.52C569.857 157.976 570.969 157.704 572.217 157.704C573.465 157.704 574.553 157.976 575.481 158.52C576.425 159.064 577.145 159.8 577.641 160.728C578.153 161.64 578.409 162.656 578.409 163.776ZM576.705 163.728C576.721 162.752 576.521 161.92 576.105 161.232C575.705 160.544 575.153 160.024 574.449 159.672C573.745 159.32 572.977 159.144 572.145 159.144C570.897 159.144 569.833 159.544 568.953 160.344C568.073 161.144 567.585 162.272 567.489 163.728H576.705ZM597.083 157.656C598.619 157.656 599.867 158.144 600.827 159.12C601.803 160.08 602.291 161.48 602.291 163.32V171H600.635V163.512C600.635 162.088 600.291 161 599.603 160.248C598.915 159.496 597.979 159.12 596.795 159.12C595.563 159.12 594.579 159.528 593.843 160.344C593.107 161.16 592.739 162.344 592.739 163.896V171H591.083V163.512C591.083 162.088 590.739 161 590.051 160.248C589.363 159.496 588.419 159.12 587.219 159.12C585.987 159.12 585.003 159.528 584.267 160.344C583.531 161.16 583.163 162.344 583.163 163.896V171H581.483V157.896H583.163V160.152C583.579 159.336 584.171 158.72 584.939 158.304C585.707 157.872 586.563 157.656 587.507 157.656C588.643 157.656 589.635 157.928 590.483 158.472C591.347 159.016 591.971 159.816 592.355 160.872C592.707 159.832 593.307 159.04 594.155 158.496C595.019 157.936 595.995 157.656 597.083 157.656ZM610.534 171.192C609.03 171.192 607.798 170.848 606.838 170.16C605.894 169.456 605.366 168.504 605.254 167.304H606.982C607.062 168.04 607.406 168.64 608.014 169.104C608.638 169.552 609.47 169.776 610.51 169.776C611.422 169.776 612.134 169.56 612.646 169.128C613.174 168.696 613.438 168.16 613.438 167.52C613.438 167.072 613.294 166.704 613.006 166.416C612.718 166.128 612.35 165.904 611.902 165.744C611.47 165.568 610.878 165.384 610.126 165.192C609.15 164.936 608.358 164.68 607.75 164.424C607.142 164.168 606.622 163.792 606.19 163.296C605.774 162.784 605.566 162.104 605.566 161.256C605.566 160.616 605.758 160.024 606.142 159.48C606.526 158.936 607.07 158.504 607.774 158.184C608.478 157.864 609.278 157.704 610.174 157.704C611.582 157.704 612.718 158.064 613.582 158.784C614.446 159.488 614.91 160.464 614.974 161.712H613.294C613.246 160.944 612.942 160.328 612.382 159.864C611.838 159.384 611.086 159.144 610.126 159.144C609.278 159.144 608.59 159.344 608.062 159.744C607.534 160.144 607.27 160.64 607.27 161.232C607.27 161.744 607.422 162.168 607.726 162.504C608.046 162.824 608.438 163.08 608.902 163.272C609.366 163.448 609.99 163.648 610.774 163.872C611.718 164.128 612.47 164.376 613.03 164.616C613.59 164.856 614.07 165.208 614.47 165.672C614.87 166.136 615.078 166.752 615.094 167.52C615.094 168.224 614.902 168.856 614.518 169.416C614.134 169.96 613.598 170.392 612.91 170.712C612.222 171.032 611.43 171.192 610.534 171.192Z" fill="black"/>
</svg>
