<svg width="109" height="27" viewBox="0 0 109 27" fill="none" xmlns="http://www.w3.org/2000/svg">
<g id="new-logo" clip-path="url(#clip0_6132_376)">
<path id="Vector" d="M106.87 4.03564V10.6556H106.72C106.05 9.38564 104.72 8.50564 103.19 8.50564H101.71C99.5 8.50564 97.71 10.2956 97.71 12.5056V16.5156C97.71 18.7256 99.5 20.5156 101.71 20.5156H103.19C104.7 20.5156 106.01 19.6656 106.69 18.4256H106.8L106.88 20.2956H108.32V4.03564H106.88H106.87ZM103.71 19.0156H102.23C100.57 19.0156 99.23 17.6756 99.23 16.0156V13.0156C99.23 11.3556 100.57 10.0156 102.23 10.0156H103.71C105.37 10.0156 106.71 11.3556 106.71 13.0156V16.0156C106.71 17.6756 105.37 19.0156 103.71 19.0156Z" fill="#222222"/>
<path id="Vector_2" d="M92.05 8.72559H91.4C90.85 8.72559 90.4 9.17559 90.4 9.72559V20.3056H92.05V10.0356H96.55V8.72559H92.05Z" fill="#222222"/>
<path id="Vector_3" d="M86.5799 20.3059L86.5599 12.0859C86.5599 10.1159 84.9599 8.50586 82.9799 8.50586H81.0299C79.0599 8.50586 77.4499 10.1059 77.4499 12.0859H78.9399C79.0799 10.7959 80.1599 9.79586 81.4899 9.79586H82.5099C83.9299 9.79586 85.0899 10.9459 85.0899 12.3759V13.3859H80.6499C78.6799 13.3859 77.0699 14.9859 77.0699 16.9659C77.0699 18.9459 78.6699 20.5459 80.6499 20.5459H82.0899C83.2799 20.5459 84.3199 19.9559 84.9699 19.0659H85.0799V20.3259H86.5599L86.5799 20.3059ZM82.1299 19.2359H80.9299C79.6699 19.2359 78.6599 18.2159 78.6599 16.9659C78.6599 15.7159 79.6799 14.6959 80.9299 14.6959H85.0999V16.2759C85.0999 17.9159 83.7699 19.2459 82.1299 19.2459V19.2359Z" fill="#222222"/>
<path id="Vector_4" d="M72.81 16.0156C72.81 17.6756 71.47 19.0156 69.81 19.0156H69.05C67.39 19.0156 66.05 17.6756 66.05 16.0156V8.72559H64.53V16.5256C64.53 18.7356 66.32 20.5256 68.53 20.5256H69.3C70.81 20.5256 72.12 19.6756 72.8 18.4356H72.91L72.99 20.3056H74.43V8.72559H72.84L72.82 16.0156H72.81Z" fill="#222222"/>
<path id="Vector_5" d="M59.5 18.1458H54.36C53.87 18.1458 53.48 17.7958 53.48 17.3058C53.48 16.8158 53.87 16.4258 54.36 16.4258H55.79H57.51C59.44 16.4258 61.01 14.8558 61.01 12.9258V12.0058C61.01 10.8958 60.48 9.91576 59.68 9.27576V8.46576H62.1V7.15576H59.56C59.01 7.15576 58.56 7.60576 58.56 8.15576V8.68576C58.23 8.57576 57.88 8.50576 57.51 8.50576H55.79C53.86 8.50576 52.29 10.0758 52.29 12.0058V12.9258C52.29 14.1058 52.88 15.1458 53.77 15.7758C52.86 15.8158 52.13 16.5558 52.13 17.4758C52.13 18.2358 52.64 18.8558 53.33 19.0558C52.17 19.4158 51.33 20.3858 51.33 21.5358V21.8658C51.33 23.3258 52.67 24.5058 54.33 24.5058H59.48C61.14 24.5058 62.48 23.1658 62.48 21.5058V21.1258C62.48 19.4658 61.14 18.1258 59.48 18.1258L59.5 18.1458ZM53.81 11.7258C53.81 10.6658 54.71 9.80576 55.81 9.80576H57.52C58.62 9.80576 59.52 10.6658 59.52 11.7258V13.2058C59.52 14.2658 58.62 15.1258 57.52 15.1258H55.81C54.71 15.1258 53.81 14.2658 53.81 13.2058V11.7258ZM59.43 23.0858H54.42C53.45 23.0858 52.66 22.2958 52.66 21.3258C52.66 20.3558 53.45 19.5658 54.42 19.5658H59.43C60.4 19.5658 61.19 20.3558 61.19 21.3258C61.19 22.2958 60.4 23.0858 59.43 23.0858Z" fill="#222222"/>
<path id="Vector_6" d="M49.88 5.35564V4.03564H46.52C45.97 4.03564 45.52 4.48564 45.52 5.03564V8.72564H43.51V10.0756H45.52V20.3056H46.99V10.0756H49.62V8.72564H46.99V5.35564H49.88Z" fill="#222222"/>
<path id="Vector_7" d="M40.59 14.8459H42V13.5059C42 10.7459 39.76 8.50586 37 8.50586H36.54C33.78 8.50586 31.54 10.7459 31.54 13.5059V15.2559C31.54 18.1559 33.91 20.5159 36.8 20.5159H37.26C39.54 20.5159 41.44 18.9859 42.04 16.9059H40.32C39.67 18.5459 38.18 19.6259 36.23 19.1759C34.28 18.7259 33.11 16.9759 33.11 15.0659V14.8459H40.59ZM36.85 9.74586C38.91 9.74586 40.39 11.4159 40.39 13.4859V13.5759H33.11V13.4859C33.11 11.4259 34.78 9.74586 36.85 9.74586Z" fill="#222222"/>
<path id="Vector_8" d="M27.16 4.03564V10.6556H27.01C26.34 9.38564 25.01 8.50564 23.48 8.50564H22C19.79 8.50564 18 10.2956 18 12.5056V16.5156C18 18.7256 19.79 20.5156 22 20.5156H23.48C24.99 20.5156 26.3 19.6656 26.98 18.4256H27.09L27.17 20.2956H28.61V4.03564H27.17H27.16ZM24 19.0156H22.52C20.86 19.0156 19.52 17.6756 19.52 16.0156V13.0156C19.52 11.3556 20.86 10.0156 22.52 10.0156H24C25.66 10.0156 27 11.3556 27 13.0156V16.0156C27 17.6756 25.66 19.0156 24 19.0156Z" fill="#222222"/>
<path id="Vector_9" d="M11.5802 0V5.84895L6.51714 2.92447L0 6.68677V20.8929L6.51187 24.6552L11.5749 21.7307V24.7447L9.12504 26.1622L10.5739 27L13.0237 25.5826V13.3683L6.51187 9.60597L1.44884 12.5304V7.51932L6.51187 4.59485L11.5749 7.51932V9.18443L13.0237 10.0222V0.837822L11.5749 0H11.5802ZM1.44884 20.055V15.0439L6.51187 17.9684L11.5749 15.0439V20.055L6.51187 22.9795L1.44884 20.055ZM10.8531 13.7898L6.51187 16.298L2.17062 13.7898L6.51187 11.2816L10.8531 13.7898Z" fill="#222222"/>
</g>
<defs>
<clipPath id="clip0_6132_376">
<rect width="109" height="27" fill="white"/>
</clipPath>
</defs>
</svg>
