        <svg  viewBox="0 0 1096 320" fill="none" xmlns="http://www.w3.org/2000/svg" style="max-height: 320; max-width: 1096;">
            <g filter="url(#filter0_d_7894_6787)">
            <g clip-path="url(#clip0_7894_6787)">
            <rect width="1096" height="320" rx="8" fill="#0C8CE0"/>
            <path d="M498 171L180 -147H-68V489H180L498 171Z" fill="#F9F9F9"/>
            <path d="M166.974 171.949C166.974 168.934 164.512 166.489 161.398 166.489C158.284 166.489 155.824 168.924 155.824 171.949C155.824 173.067 156.172 174.157 156.82 175.065C157.463 175.969 158.38 176.65 159.439 177.011L157.248 188.225H165.473L163.358 177.011C165.472 176.2 166.973 174.306 166.973 171.948L166.974 171.949Z" fill="#899CA8"/>
            <path d="M179.044 171.868C179.044 162.436 171.166 154.775 161.477 154.775C151.788 154.775 143.908 162.428 143.908 171.868C143.908 178.132 147.366 183.583 152.519 186.519L153.625 179.212C151.91 177.364 150.951 174.954 150.934 172.449C150.934 166.842 155.624 162.282 161.39 162.282C167.154 162.282 171.847 166.842 171.847 172.45C171.848 174.98 170.892 177.421 169.166 179.294L170.28 186.601C175.546 183.661 179.044 178.134 179.044 171.87M202.573 178.135C206.114 178.135 208.948 175.35 208.948 171.949C208.948 168.548 206.102 165.776 202.573 165.776C199.044 165.776 196.199 168.559 196.199 171.96C196.199 175.362 199.044 178.147 202.574 178.147L202.573 178.135ZM202.573 183.173C196.199 183.173 191.006 178.147 191.006 171.922C191.006 165.698 196.199 160.672 202.573 160.672C208.948 160.672 214.14 165.697 214.14 171.922C214.14 178.147 208.946 183.173 202.573 183.173ZM216.567 161.356V182.579C216.564 182.631 216.572 182.682 216.591 182.73C216.609 182.779 216.637 182.823 216.673 182.86C216.71 182.896 216.753 182.924 216.801 182.942C216.849 182.961 216.901 182.968 216.952 182.966H221.064C221.115 182.969 221.167 182.961 221.215 182.943C221.263 182.925 221.307 182.896 221.343 182.86C221.38 182.823 221.408 182.779 221.427 182.731C221.445 182.682 221.453 182.631 221.45 182.579V174.384H225.864C225.864 174.384 232.014 174.076 232.014 167.618C232.014 161.162 225.793 160.893 225.793 160.893H216.911C216.72 160.893 216.567 161.047 216.567 161.356ZM224.593 164.204C224.593 164.204 227.824 164.128 227.824 167.606C227.824 171.008 224.593 171.008 224.593 171.008H221.379V164.45C221.379 164.142 221.615 164.213 221.615 164.213L224.593 164.205L224.593 164.204Z" fill="#899CA8"/>
            <path d="M295.294 161.355V182.579C295.291 182.63 295.299 182.682 295.318 182.73C295.343 182.803 295.392 182.865 295.457 182.908C295.522 182.95 295.599 182.97 295.677 182.965H299.791C299.843 182.969 299.894 182.961 299.943 182.943C299.991 182.924 300.035 182.896 300.071 182.86C300.107 182.823 300.136 182.779 300.154 182.731C300.172 182.682 300.179 182.63 300.177 182.579V174.384H304.597C304.597 174.384 310.749 174.075 310.749 167.618C310.749 161.162 304.521 160.931 304.521 160.931H295.639C295.523 160.893 295.294 161.047 295.294 161.355ZM303.322 164.204C303.322 164.204 306.551 164.128 306.551 167.606C306.551 171.008 303.322 171.008 303.322 171.008H300.099V164.449C300.099 164.141 300.334 164.211 300.334 164.211L303.322 164.204Z" fill="#899CA8"/>
            <path d="M269.076 160.893H265.922C265.844 160.888 265.767 160.909 265.701 160.951C265.636 160.994 265.587 161.056 265.561 161.129C265.542 161.177 265.534 161.229 265.537 161.281V174.462L257.511 160.893H253.583C253.467 160.897 253.356 160.942 253.27 161.02C253.183 161.098 253.127 161.204 253.11 161.319V182.541C253.105 182.618 253.125 182.695 253.167 182.761C253.209 182.826 253.271 182.877 253.344 182.906C253.392 182.924 253.443 182.932 253.495 182.929H256.649C256.701 182.932 256.752 182.924 256.8 182.905C256.848 182.886 256.891 182.858 256.927 182.821C256.963 182.784 256.992 182.74 257.01 182.692C257.028 182.644 257.035 182.592 257.032 182.541V167.311L266.191 182.855L266.234 182.933H268.961C269.012 182.936 269.063 182.928 269.111 182.909C269.159 182.891 269.203 182.862 269.238 182.825C269.274 182.789 269.302 182.745 269.319 182.697C269.338 182.649 269.347 182.598 269.343 182.546V161.281C269.355 161.237 269.357 161.192 269.35 161.147C269.343 161.103 269.326 161.061 269.3 161.023C269.275 160.986 269.242 160.955 269.203 160.933C269.165 160.91 269.121 160.897 269.076 160.893Z" fill="#899CA8"/>
            <path d="M329.785 160.893H326.633C326.473 160.884 326.326 160.98 326.272 161.129C326.253 161.177 326.245 161.228 326.248 161.28V174.463L318.223 160.894H314.292C314.107 160.878 313.933 160.979 313.859 161.147C313.834 161.201 313.821 161.259 313.819 161.319V182.466C313.809 182.68 313.986 182.857 314.204 182.85H317.368C317.471 182.856 317.573 182.818 317.645 182.744C317.719 182.671 317.758 182.569 317.752 182.466V167.31L326.978 182.854L327.019 182.933H329.737C329.897 182.942 330.043 182.846 330.097 182.697C330.116 182.649 330.124 182.597 330.121 182.546V161.278C330.128 161.181 330.096 161.084 330.032 161.01C329.967 160.937 329.874 160.895 329.776 160.892M284.036 182.616L292.063 161.391C292.146 161.137 291.948 160.88 291.678 160.89H288.073C287.909 160.89 287.76 160.982 287.688 161.128L282.421 175.045L277.154 161.122C277.086 160.974 276.935 160.881 276.77 160.885H273.158C272.967 160.886 272.803 161.02 272.768 161.206C272.756 161.265 272.757 161.326 272.772 161.385L280.884 182.615C280.955 182.761 281.105 182.853 281.268 182.853H283.704C283.855 182.843 283.987 182.751 284.049 182.615" fill="#899CA8"/>
            <path d="M234.598 182.54C234.595 182.591 234.602 182.643 234.62 182.692C234.638 182.74 234.667 182.784 234.703 182.821C234.74 182.857 234.783 182.885 234.831 182.903C234.879 182.921 234.931 182.929 234.982 182.927H249.855C249.907 182.93 249.958 182.922 250.006 182.904C250.055 182.886 250.098 182.857 250.134 182.821C250.171 182.784 250.2 182.74 250.218 182.692C250.237 182.643 250.245 182.592 250.241 182.54V179.454C250.245 179.403 250.237 179.352 250.219 179.304C250.201 179.256 250.173 179.212 250.136 179.175C250.1 179.139 250.056 179.11 250.008 179.092C249.959 179.073 249.907 179.065 249.856 179.067H239.792C239.74 179.071 239.689 179.063 239.641 179.045C239.593 179.027 239.549 178.998 239.513 178.962C239.477 178.925 239.449 178.881 239.43 178.833C239.412 178.785 239.404 178.734 239.406 178.683V173.803C239.404 173.752 239.412 173.701 239.43 173.652C239.449 173.604 239.477 173.56 239.513 173.523C239.549 173.487 239.593 173.459 239.641 173.44C239.689 173.422 239.74 173.414 239.792 173.418H246.481C246.559 173.423 246.636 173.402 246.701 173.36C246.766 173.317 246.816 173.255 246.842 173.182C246.86 173.134 246.868 173.082 246.864 173.03V169.944C246.868 169.893 246.86 169.841 246.842 169.793C246.824 169.745 246.796 169.701 246.759 169.664C246.723 169.628 246.679 169.6 246.631 169.581C246.583 169.563 246.532 169.555 246.481 169.557H239.792C239.74 169.561 239.689 169.553 239.641 169.535C239.593 169.517 239.549 169.488 239.513 169.452C239.477 169.415 239.449 169.371 239.43 169.323C239.412 169.275 239.403 169.224 239.406 169.173V165.027C239.404 164.976 239.412 164.925 239.43 164.876C239.449 164.828 239.477 164.784 239.513 164.747C239.549 164.711 239.593 164.683 239.641 164.665C239.689 164.646 239.74 164.639 239.792 164.642H249.863C249.915 164.645 249.966 164.637 250.014 164.618C250.062 164.6 250.106 164.571 250.142 164.534C250.179 164.498 250.207 164.454 250.226 164.406C250.244 164.357 250.252 164.306 250.249 164.254V161.168C250.252 161.116 250.245 161.063 250.226 161.014C250.208 160.965 250.18 160.92 250.143 160.883C250.106 160.846 250.061 160.817 250.012 160.799C249.963 160.781 249.91 160.773 249.858 160.777H234.986C234.934 160.773 234.882 160.781 234.834 160.799C234.785 160.817 234.741 160.845 234.705 160.882C234.667 160.918 234.639 160.962 234.62 161.011C234.602 161.059 234.594 161.111 234.597 161.163L234.598 182.54Z" fill="#899CA8"/>
            <line y1="-0.5" x2="196.797" y2="-0.5" transform="matrix(0.77237 0.635173 -0.108227 0.994126 162 109.014)" stroke="#899CA8"/>
            <line y1="-0.5" x2="196.797" y2="-0.5" transform="matrix(-0.77237 0.635173 0.108227 0.994126 314 109.014)" stroke="#899CA8"/>
            <g clip-path="url(#clip1_7894_6787)">
            <path d="M991.743 138.722V161.563H991.226C988.914 157.181 984.325 154.145 979.046 154.145H973.94C966.315 154.145 960.139 160.321 960.139 167.946V181.782C960.139 189.407 966.315 195.583 973.94 195.583H979.046C984.256 195.583 988.776 192.65 991.122 188.372H991.502L991.778 194.824H996.746V138.722H991.778H991.743ZM980.84 190.407H975.734C970.006 190.407 965.383 185.784 965.383 180.056V169.706C965.383 163.978 970.006 159.355 975.734 159.355H980.84C986.568 159.355 991.191 163.978 991.191 169.706V180.056C991.191 185.784 986.568 190.407 980.84 190.407Z" fill="white"/>
            <path d="M940.61 154.904H938.368C936.47 154.904 934.917 156.456 934.917 158.354V194.858H940.61V159.423H956.137V154.904H940.61Z" fill="white"/>
            <path d="M921.737 194.858L921.668 166.497C921.668 159.7 916.148 154.145 909.316 154.145H902.588C895.791 154.145 890.236 159.665 890.236 166.497H895.377C895.86 162.046 899.586 158.596 904.175 158.596H907.695C912.594 158.596 916.596 162.564 916.596 167.498V170.982H901.277C894.48 170.982 888.925 176.503 888.925 183.334C888.925 190.166 894.446 195.686 901.277 195.686H906.245C910.351 195.686 913.94 193.651 916.182 190.58H916.562V194.927H921.668L921.737 194.858ZM906.383 191.166H902.243C897.896 191.166 894.411 187.647 894.411 183.334C894.411 179.021 897.93 175.502 902.243 175.502H916.631V180.954C916.631 186.612 912.042 191.201 906.383 191.201V191.166Z" fill="white"/>
            <path d="M874.227 180.056C874.227 185.784 869.604 190.407 863.876 190.407H861.254C855.527 190.407 850.903 185.784 850.903 180.056V154.904H845.659V181.816C845.659 189.441 851.835 195.617 859.46 195.617H862.117C867.327 195.617 871.846 192.684 874.193 188.406H874.572L874.848 194.858H879.817V154.904H874.331L874.262 180.056H874.227Z" fill="white"/>
            <path d="M828.304 187.405H810.569C808.879 187.405 807.533 186.198 807.533 184.507C807.533 182.816 808.879 181.471 810.569 181.471H815.503H821.438C828.097 181.471 833.514 176.054 833.514 169.395V166.221C833.514 162.391 831.685 159.01 828.925 156.801V154.007H837.274V149.487H828.511C826.613 149.487 825.061 151.039 825.061 152.937V154.766C823.922 154.386 822.714 154.145 821.438 154.145H815.503C808.844 154.145 803.427 159.562 803.427 166.221V169.395C803.427 173.466 805.463 177.055 808.534 179.228C805.394 179.366 802.875 181.919 802.875 185.094C802.875 187.716 804.635 189.855 807.016 190.545C803.013 191.787 800.115 195.134 800.115 199.102V200.24C800.115 205.278 804.738 209.349 810.466 209.349H828.235C833.962 209.349 838.586 204.726 838.586 198.998V197.687C838.586 191.96 833.962 187.336 828.235 187.336L828.304 187.405ZM808.672 165.255C808.672 161.597 811.777 158.63 815.572 158.63H821.472C825.268 158.63 828.373 161.597 828.373 165.255V170.361C828.373 174.018 825.268 176.985 821.472 176.985H815.572C811.777 176.985 808.672 174.018 808.672 170.361V165.255ZM828.062 204.45H810.776C807.43 204.45 804.704 201.724 804.704 198.377C804.704 195.03 807.43 192.305 810.776 192.305H828.062C831.409 192.305 834.135 195.03 834.135 198.377C834.135 201.724 831.409 204.45 828.062 204.45Z" fill="white"/>
            <path d="M795.112 143.277V138.722H783.52C781.622 138.722 780.069 140.275 780.069 142.172V154.904H773.134V159.562H780.069V194.858H785.141V159.562H794.215V154.904H785.141V143.277H795.112Z" fill="white"/>
            <path d="M763.059 176.02H767.924V171.396C767.924 161.874 760.196 154.145 750.673 154.145H749.086C739.563 154.145 731.834 161.874 731.834 171.396V177.434C731.834 187.44 740.012 195.583 749.983 195.583H751.57C759.437 195.583 765.992 190.304 768.062 183.127H762.128C759.885 188.786 754.744 192.512 748.016 190.959C741.288 189.407 737.251 183.369 737.251 176.779V176.02H763.059ZM750.155 158.423C757.263 158.423 762.369 164.185 762.369 171.327V171.638H737.251V171.327C737.251 164.22 743.013 158.423 750.155 158.423Z" fill="white"/>
            <path d="M716.722 138.722V161.563H716.204C713.893 157.181 709.304 154.145 704.025 154.145H698.919C691.294 154.145 685.118 160.321 685.118 167.946V181.782C685.118 189.407 691.294 195.583 698.919 195.583H704.025C709.235 195.583 713.755 192.65 716.101 188.372H716.481L716.757 194.824H721.725V138.722H716.757H716.722ZM705.819 190.407H700.713C694.985 190.407 690.362 185.784 690.362 180.056V169.706C690.362 163.978 694.985 159.355 700.713 159.355H705.819C711.547 159.355 716.17 163.978 716.17 169.706V180.056C716.17 185.784 711.547 190.407 705.819 190.407Z" fill="white"/>
            <path d="M662.967 124.921V145.102L645.499 135.011L623.013 147.992V197.007L645.48 209.988L662.949 199.898V210.297L654.497 215.188L659.495 218.079L667.948 213.188V171.045L645.48 158.064L628.012 168.155V150.865L645.48 140.775L662.949 150.865V156.61L667.948 159.501V127.812L662.949 124.921H662.967ZM628.012 194.116V176.827L645.48 186.917L662.949 176.827V194.116L645.48 204.207L628.012 194.116ZM660.459 172.5L645.48 181.154L630.502 172.5L645.48 163.846L660.459 172.5Z" fill="white"/>
            </g>
            </g>
            </g>
            <defs>
            <filter id="filter0_d_7894_6787" x="0" y="0" width="1096" height="320" filterUnits="userSpaceOnUse" color-interpolation-filters="sRGB">
            <feFlood flood-opacity="0" result="BackgroundImageFix"/>
            <feColorMatrix in="SourceAlpha" type="matrix" values="0 0 0 0 0 0 0 0 0 0 0 0 0 0 0 0 0 0 127 0" result="hardAlpha"/>
            <feOffset dy="12"/>
            <feGaussianBlur stdDeviation="12"/>
            <feComposite in2="hardAlpha" operator="out"/>
            <feColorMatrix type="matrix" values="0 0 0 0 0 0 0 0 0 0 0 0 0 0 0 0 0 0 0.08 0"/>
            <feBlend mode="normal" in2="BackgroundImageFix" result="effect1_dropShadow_7894_6787"/>
            <feBlend mode="normal" in="SourceGraphic" in2="effect1_dropShadow_7894_6787" result="shape"/>
            </filter>
            <clipPath id="clip0_7894_6787">
            <rect width="1096" height="320" rx="8" fill="white"/>
            </clipPath>
            <clipPath id="clip1_7894_6787">
            <rect width="376.08" height="93.1574" fill="white" transform="translate(623.013 124.921)"/>
            </clipPath>
            </defs>
            </svg>
