<svg xmlns="http://www.w3.org/2000/svg" version="1.1" viewBox="0 0 1053 255.1"><defs></defs> <path d="M52.9 210.1c-10.6 0-19.8-2.5-27.9-7.5s-14.2-11.8-18.5-20.5C2.2 173.4 0 163.6 0 152.6s2.2-20.8 6.5-29.4c4.3-8.6 10.5-15.4 18.5-20.3s17.4-7.4 28.1-7.4 16.6 1.8 23.3 5.4c6.7 3.6 12 8.7 15.7 15.2V51.4h18.2v156H93.8l-1.7-18c-2.3 3.6-5.3 7-8.9 10.1-3.6 3.1-7.9 5.6-12.9 7.6S59.5 210 52.9 210Zm1.9-15.9c7.2 0 13.6-1.7 19.1-5.2 5.5-3.5 9.8-8.3 12.9-14.4 3.1-6.1 4.7-13.4 4.7-21.8s-1.5-15.5-4.7-21.7c-3.1-6.2-7.4-11-12.9-14.5s-11.9-5.2-19.1-5.2-13.2 1.7-18.8 5.2c-5.6 3.5-9.9 8.3-12.9 14.5-3 6.2-4.6 13.4-4.6 21.7s1.5 15.6 4.6 21.8c3 6.1 7.3 10.9 12.9 14.4s11.8 5.2 18.8 5.2ZM141.5 255.1l26.7-59.8h-6.3L119 98.2h19.7l35.5 83.4 37.5-83.4h18.9l-70 156.9h-19.1ZM239.3 207.5V98.3h16.5l.9 19.1c3.5-6.8 8.4-12.1 14.8-15.9s13.8-5.7 22-5.7 15.9 1.7 22.1 5.1c6.2 3.4 11 8.5 14.5 15.4s5.2 15.6 5.2 26.1v65.2h-18.2v-63.3c0-11-2.4-19.2-7.3-24.7-4.8-5.5-11.7-8.2-20.5-8.2s-11.5 1.5-16.2 4.5c-4.8 3-8.6 7.2-11.4 12.8-2.8 5.6-4.2 12.5-4.2 20.7v58.3h-18.2ZM388.1 210.1c-8.8 0-16.2-1.6-22.1-4.7s-10.3-7.2-13.2-12.4c-2.9-5.1-4.3-10.7-4.3-16.8s1.9-13.6 5.7-18.8c3.8-5.1 9.2-9 16.2-11.7 7-2.7 15.3-4 24.8-4H424c0-6.8-1-12.5-3.1-17s-5.1-8-9.1-10.3c-4-2.3-8.9-3.5-14.8-3.5s-12.9 1.7-18 5.2-8.2 8.6-9.3 15.4h-18.6c.9-7.8 3.5-14.3 7.9-19.6 4.4-5.3 10-9.3 16.8-12.1 6.8-2.8 13.9-4.2 21.2-4.2s18.5 1.8 25.2 5.5 11.7 8.8 15.1 15.4c3.3 6.6 5 14.3 5 23.3v67.6h-16.2l-1.1-19.3c-1.5 3-3.3 5.9-5.5 8.6-2.2 2.7-4.8 5-7.8 6.9-3 2-6.4 3.5-10.3 4.7-3.9 1.2-8.3 1.7-13.2 1.7Zm2.8-15.4c5 0 9.6-1 13.8-3.1s7.6-5 10.5-8.7 5.1-7.8 6.6-12.2c1.5-4.5 2.3-9.2 2.3-14.1v-.6h-27.3c-7.1 0-12.8.8-17.1 2.5-4.3 1.7-7.5 4-9.3 6.9-1.9 3-2.8 6.3-2.8 10.1s.9 7.3 2.7 10.2c1.8 2.9 4.5 5.1 8 6.7 3.5 1.6 7.8 2.4 12.7 2.4ZM460.3 207.5V98.3h16.5l1.1 15.6c3.5-5.6 8.1-10.1 14-13.3 5.8-3.2 12.2-4.9 19.2-4.9s10.7.8 15.3 2.3c4.5 1.5 8.6 3.8 12.1 6.9 3.5 3.1 6.3 7 8.3 11.8 3.8-6.6 9-11.8 15.6-15.5 6.6-3.7 13.7-5.5 21-5.5s15.9 1.7 22.1 5.1c6.2 3.4 11 8.5 14.5 15.4s5.2 15.6 5.2 26.1v65.2h-18v-63.3c0-11-2.2-19.2-6.7-24.7s-10.8-8.2-19.1-8.2-10.7 1.5-15.2 4.5-8 7.2-10.6 12.9-3.9 12.6-3.9 20.8v58.1h-18.2v-63.3c0-11-2.2-19.2-6.7-24.7s-10.8-8.2-18.9-8.2-10.5 1.5-15 4.5-8 7.2-10.6 12.9-3.9 12.6-3.9 20.8v58.1h-18.2ZM678 210.1c-8.8 0-16.2-1.6-22.1-4.7s-10.3-7.2-13.2-12.4c-2.9-5.1-4.3-10.7-4.3-16.8s1.9-13.6 5.7-18.8c3.8-5.1 9.2-9 16.2-11.7 7-2.7 15.3-4 24.8-4h28.8c0-6.8-1-12.5-3.1-17s-5.1-8-9.1-10.3c-4-2.3-8.9-3.5-14.8-3.5s-12.9 1.7-18 5.2-8.2 8.6-9.3 15.4H641c.9-7.8 3.5-14.3 7.9-19.6 4.4-5.3 10-9.3 16.8-12.1 6.8-2.8 13.9-4.2 21.2-4.2s18.5 1.8 25.2 5.5 11.7 8.8 15.1 15.4c3.3 6.6 5 14.3 5 23.3v67.6H716l-1.1-19.3c-1.5 3-3.3 5.9-5.5 8.6-2.2 2.7-4.8 5-7.8 6.9-3 2-6.4 3.5-10.3 4.7-3.9 1.2-8.3 1.7-13.2 1.7Zm2.8-15.4c5 0 9.6-1 13.8-3.1s7.6-5 10.5-8.7 5.1-7.8 6.6-12.2c1.5-4.5 2.3-9.2 2.3-14.1v-.6h-27.3c-7.1 0-12.8.8-17.1 2.5-4.3 1.7-7.5 4-9.3 6.9-1.9 3-2.8 6.3-2.8 10.1s.9 7.3 2.7 10.2c1.8 2.9 4.5 5.1 8 6.7 3.5 1.6 7.8 2.4 12.7 2.4ZM789.4 207.5c-6.5 0-12.1-1-16.9-3-4.8-2-8.4-5.5-10.9-10.3-2.5-4.8-3.8-11.4-3.8-19.6v-60.9h-19.1V98.3h19.1l2.4-26.4H776v26.4h31.6v15.4H776v60.9c0 6.8 1.4 11.4 4.1 13.8 2.7 2.4 7.6 3.6 14.5 3.6h11.7v15.6h-16.9ZM863.6 210.1c-10.1 0-19.1-2.4-27.1-7.1-7.9-4.8-14.2-11.5-18.6-20-4.5-8.6-6.7-18.6-6.7-30s2.2-21.6 6.6-30.1c4.4-8.5 10.6-15.2 18.6-19.9 8-4.8 17.2-7.1 27.6-7.1s19.8 2.4 27.3 7.1c7.5 4.8 13.2 11 17.2 18.8 4 7.7 6 16.2 6 25.5v4.5c0 1.6 0 3.4-.2 5.4h-89.5v-14.1h71.7c-.4-10-3.7-17.8-9.9-23.4-6.2-5.6-13.8-8.5-23.1-8.5s-11.8 1.4-17.1 4.2-9.6 6.9-12.8 12.4-4.8 12.2-4.8 20.3v6.1c0 9 1.6 16.5 4.9 22.5 3.2 6.1 7.5 10.6 12.8 13.6 5.3 3 10.9 4.6 17 4.6s14-1.7 19-5.1c5-3.4 8.6-8 10.9-14h18c-1.9 6.6-5 12.5-9.3 17.6-4.3 5.1-9.7 9.2-16.2 12.2s-13.9 4.5-22.4 4.5ZM1051 48.3c-40.9.2-58.2-23.5-62.1-46.5-.4-2.3-3.8-2.3-4.2 0-3.9 23-21.3 46.6-61.9 46.4h-.1c-2.6.3-2.6 4.3 0 4.2 40.9-.2 58.2 23.5 62.1 46.5.4 2.3 3.8 2.3 4.2 0 3.9-23.1 21.3-46.6 62-46.4 2.6 0 2.6-4 0-4.2"></path> </svg>
