<?xml version="1.0" encoding="UTF-8"?>
<svg id="Layer_1" xmlns="http://www.w3.org/2000/svg" version="1.1" viewBox="0 0 80 80">
  <defs>
    <style>
      .st0 {
        fill: none;
        stroke: #3d72c1;
        stroke-linecap: round;
        stroke-linejoin: round;
      }
    </style>
  </defs>
  <path class="st0" d="M71.01,40c-1.13-2.42-2.55-4.72-4.25-6.85-6.5-8.15-16.35-12.89-26.77-12.89s-20.27,4.74-26.77,12.89c-1.7,2.13-3.12,4.43-4.25,6.85"/>
  <path class="st0" d="M71.01,40c-1.13,2.42-2.55,4.72-4.25,6.85-6.5,8.15-16.35,12.89-26.77,12.89s-20.27-4.74-26.77-12.89c-1.7-2.13-3.12-4.43-4.25-6.85"/>
  <path class="st0" d="M35.31,49.74c2.96,1.43,6.42,1.43,9.38,0s5.12-4.13,5.85-7.34c.73-3.21-.04-6.57-2.09-9.15-2.05-2.57-5.16-4.07-8.45-4.07s-6.4,1.5-8.45,4.07c-2.05,2.57-2.82,5.94-2.09,9.15.73,3.21,2.89,5.91,5.85,7.34Z"/>
</svg>
