<svg viewBox="0 0 100 100" xmlns="http://www.w3.org/2000/svg" xml:space="preserve" style="fill-rule:evenodd;clip-rule:evenodd;stroke-linejoin:round;stroke-miterlimit:2"><path d="M105.58 47.56c-.89.2-1.82.41-2.76.63.97 2.07 1.76 4.2 2.31 6.39l-16.37 3.44c-.46-1.97-.98-3.87-1.57-5.71-.88.26-1.76.53-2.65.8.58 1.76 1.1 3.59 1.54 5.47L71.7 61.6l-.81-3.84c-.86.33-1.73.66-2.6 1l.71 3.4-14.38 3.04c-.03-.15-.05-.3-.08-.45-3.47 1.68-6.91 3.49-10.29 5.44l8.24-1.73c1.28 5.54 3.12 10.58 5.33 14.9l-14 2.94a35.617 35.617 0 0 1-6.64-11.65c-.85.62-1.62 1.22-2.3 1.8 4.3 11.6 14.14 20.92 27.05 23.97 2.94.69 5.91 1.04 8.85 1.04 7.01 0 13.91-1.94 20.02-5.72 8.68-5.37 14.76-13.79 17.1-23.73 1.98-8.3 1.13-16.81-2.32-24.45ZM86.64 61.28c1.05 5.49 1.37 10.91 1.02 15.81l-12.18 2.56-3.22-15.35 14.38-3.02Zm-31.45 6.61 14.38-3.02 3.23 15.34-12.11 2.55c-2.29-4.28-4.21-9.35-5.5-14.87Zm7.39 29.85a35.262 35.262 0 0 1-16.56-9.09l13.18-2.77c3.99 6.83 8.95 11.45 13.97 12.74-3.51.23-7.07-.05-10.59-.88Zm-.45-12.48 11.23-2.36 2.8 13.32c-4.72.08-9.84-4.16-14.03-10.96Zm16.73 10.41-2.8-13.34 11.33-2.38c-.62 4.62-1.89 8.62-3.79 11.53-1.37 2.08-2.96 3.48-4.74 4.19Zm10.51-2.28a36.08 36.08 0 0 1-6.78 3.26c1.22-.95 2.33-2.17 3.31-3.66 2.27-3.48 3.73-8.21 4.34-13.63l13.36-2.81c-2.81 6.95-7.73 12.82-14.23 16.84Zm15.87-22.02c-.17.72-.37 1.44-.58 2.14l-14.18 2.98c.28-4.91-.1-10.29-1.16-15.78l16.37-3.44c.8 4.62.66 9.4-.45 14.1Z" style="fill:#626261;fill-rule:nonzero" transform="translate(-24.388 -23.092) scale(1.02851)"></path><path d="M35.49 67.2c-.45-3.95-.24-8.04.72-12.13.17-.72.37-1.44.58-2.14l13.99-2.94c-.17 2.93-.08 6.04.23 9.22.89-.38 1.78-.74 2.68-1.1-.24-3.02-.28-5.95-.08-8.72l12.18-2.56 1.38 6.55c.88-.27 1.76-.54 2.64-.79l-1.33-6.32 12.11-2.55c.9 1.68 1.74 3.49 2.51 5.39.93-.22 1.84-.42 2.75-.63-.74-1.89-1.54-3.68-2.4-5.37l14.21-2.99c1.18 1.38 2.27 2.86 3.24 4.44.18.3.35.6.53.9.99-.17 1.96-.32 2.89-.47-.34-.63-.7-1.26-1.08-1.87-5.37-8.68-13.79-14.76-23.73-17.1-9.94-2.35-20.19-.68-28.87 4.68-8.68 5.37-14.76 13.79-17.1 23.73-1.15 4.88-1.3 9.77-.59 14.45.78-.54 1.63-1.11 2.54-1.68Zm35.17-39.46c2.73 0 5.49.32 8.22.96 6.35 1.5 12.03 4.64 16.59 9.08l-13.4 2.82c-4.01-6.86-8.99-11.49-14.03-12.76.86-.06 1.74-.1 2.62-.1Zm-5.44 2.51c4.69 0 9.76 4.23 13.91 10.97L67.9 43.58l-2.8-13.32c.04-.01.08-.01.12-.01Zm-2.81.55 2.8 13.34-11.33 2.38c.62-4.62 1.9-8.62 3.79-11.52 1.36-2.08 2.95-3.48 4.74-4.2Zm-10.33 2.25c2.09-1.29 4.29-2.35 6.54-3.18-1.2.95-2.3 2.15-3.26 3.62-2.27 3.48-3.73 8.21-4.34 13.63l-13.17 2.77c2.81-6.95 7.73-12.82 14.23-16.84Z" style="fill:#fc0;fill-rule:nonzero" transform="translate(-24.388 -23.092) scale(1.02851)"></path><path d="M43.67 90.19c-12.07-2.56-22.91-7.91-3.23-19.9 35.45-21.59 80.5-27.41 80.5-27.41s-54.1 4.5-85.38 24.28c-24.45 15.46-5.93 22.07 9.68 24.53-.54-.49-1.06-.99-1.57-1.5ZM43.6 97.88l-3.19 6.73.02.02 5.08-5.47 1.6 1.07-3.13 6.77.02.02 5.02-5.51 1.6 1.07-7.06 7.26-1.87-1.25 3.1-6.63-.02-.01-4.96 5.38-1.87-1.25L42 96.8l1.6 1.08ZM48.6 106.37c.29-.41.61-.72.96-.93.35-.21.73-.31 1.14-.32.41 0 .87.1 1.37.33.53.22.94.49 1.22.79.28.3.46.65.53 1.05s.05.84-.07 1.33c-.11.49-.31 1.04-.57 1.64-.26.59-.54 1.09-.83 1.5-.29.41-.61.72-.96.93-.35.21-.72.31-1.13.3-.41-.01-.86-.12-1.37-.34-.53-.22-.94-.48-1.23-.78-.29-.29-.47-.64-.54-1.03-.07-.39-.05-.83.07-1.33.12-.49.31-1.04.57-1.63.27-.6.55-1.1.84-1.51Zm.53 3.26c-.11.31-.19.58-.22.82s-.01.45.07.62c.08.17.22.31.43.41.36.16.69.08.99-.23.3-.31.64-.9 1.02-1.76s.58-1.51.61-1.94c.03-.43-.13-.73-.49-.89-.21-.09-.41-.11-.59-.05s-.35.19-.51.37c-.16.18-.31.42-.46.71-.15.29-.3.61-.45.96-.15.34-.28.67-.4.98ZM57.3 107.6l-.29.96.03.01c.29-.29.6-.5.94-.63.33-.13.69-.13 1.07-.02.05.02.11.04.16.06.06.02.11.05.16.07l-.54 1.76c-.1-.04-.19-.08-.28-.11-.09-.03-.19-.06-.28-.09-.16-.05-.33-.08-.5-.08-.17 0-.34.02-.51.09-.17.06-.31.16-.44.3-.13.14-.23.33-.31.57l-1.32 4.31-1.84-.56 2.2-7.18 1.75.54ZM62.38 106.33l-2.1 9.74-1.88-.41 2.1-9.74 1.88.41ZM66.15 116.1c-.25.33-.51.55-.79.66-.28.11-.61.15-1 .11-.79-.08-1.33-.44-1.64-1.08-.31-.64-.39-1.65-.24-3.04.14-1.39.43-2.37.87-2.95.43-.58 1.04-.82 1.83-.74.36.04.66.14.9.32.24.17.45.42.62.74h.03l.33-3.14 1.92.2-1.03 9.91-1.83-.19.08-.79-.05-.01Zm-1.77-1.3c.08.42.33.66.75.7.43.04.72-.13.89-.53.17-.4.29-1 .38-1.82.08-.81.09-1.43 0-1.86-.09-.43-.34-.66-.76-.7-.42-.04-.71.13-.88.53-.17.4-.29 1.01-.38 1.82-.09.81-.08 1.43 0 1.86ZM71.6 107.22l1.78 7.24h.03l.49-7.45 1.92-.18 1.85 7.23h.03l.42-7.44 1.92-.18-.89 10.09-2.24.21-1.78-7.1h-.03l-.44 7.3-2.24.21-2.73-9.76 1.91-.17ZM82.45 105.43l.4 1.6-1.87.47-.4-1.6 1.87-.47Zm.63 2.49 1.84 7.28-1.87.47-1.84-7.28 1.87-.47ZM90.18 112.62c-.08.41-.22.72-.42.94-.2.22-.48.4-.85.54-.74.28-1.39.2-1.95-.24s-1.08-1.31-1.57-2.62-.67-2.32-.53-3.03.57-1.2 1.31-1.48c.34-.13.66-.17.95-.12.29.05.58.18.88.39l.03-.01-1.1-2.96 1.8-.67 3.48 9.34-1.73.64-.28-.75-.02.03Zm-2.16-.38c.26.34.59.44.98.3.4-.15.59-.44.56-.87-.03-.43-.18-1.03-.47-1.8s-.56-1.32-.82-1.67c-.26-.34-.59-.44-1-.29-.39.15-.58.44-.55.87.03.43.18 1.03.47 1.8.29.76.57 1.32.83 1.66ZM94.24 108.5c.11.2.22.38.35.55.13.17.26.31.41.41.14.11.29.18.44.2.15.03.31 0 .46-.08.29-.16.44-.37.46-.65.02-.28-.06-.63-.24-1.08l1.52-.83c.39.79.5 1.48.34 2.09-.16.61-.64 1.13-1.45 1.57-.61.33-1.15.49-1.6.47-.45-.02-.85-.15-1.2-.4s-.65-.57-.91-.96-.51-.8-.74-1.22c-.24-.44-.44-.88-.6-1.33-.16-.44-.24-.87-.23-1.29.01-.42.14-.82.38-1.19.24-.38.65-.72 1.22-1.03.49-.27.94-.41 1.34-.42.4-.01.77.08 1.11.27.34.19.65.48.94.85.29.38.57.82.85 1.33l.21.38-3.35 1.82.29.54Zm.49-3.12a1.8 1.8 0 0 0-.4-.42.833.833 0 0 0-.42-.17.85.85 0 0 0-.48.13c-.17.1-.29.21-.36.35-.07.14-.1.29-.1.45 0 .16.03.33.09.5.06.17.13.33.21.49l.14.26 1.73-.94c-.15-.26-.28-.47-.41-.65ZM95.65 99.5l5.48 5.05.02-.02-3.7-6.48 1.5-1.21 5.53 5.01.02-.02-3.76-6.44 1.5-1.21 4.83 8.91-1.75 1.41-5.4-4.94-.02.04 3.66 6.34-1.75 1.41-7.66-6.63 1.5-1.22ZM104.9 90.8l9.29 4.48-1.36 1.59-1.9-1.02-1.72 2.01 1.3 1.72-1.36 1.59-5.86-8.49 1.61-1.88Zm4.55 4.24-4.03-2.18-.02.02 2.78 3.65 1.27-1.49ZM114.92 88.17l.01-.02-5.84-3.53.95-1.58 8.53 5.15-1.18 1.96-7.25-1.51-.01.02 5.97 3.61-.95 1.58-8.53-5.15 1.2-1.98 7.1 1.45Z" style="fill:#626261;fill-rule:nonzero" transform="translate(-24.388 -23.092) scale(1.02851)"></path></svg>
