<svg width="141" height="30" viewBox="0 0 141 30" fill="none" xmlns="http://www.w3.org/2000/svg">
<g clip-path="url(#clip0_633_228451)">
<path d="M59.636 15.1578C59.636 16.656 59.401 18.0308 58.9308 19.2823C58.4607 20.5339 57.797 21.6109 56.9397 22.5136C56.0823 23.4162 55.0522 24.1164 53.8492 24.6142C52.6462 25.112 51.3165 25.3609 49.8599 25.3609C48.4034 25.3609 47.076 25.112 45.8776 24.6142C44.6792 24.1164 43.6514 23.4162 42.794 22.5136C41.9367 21.6109 41.273 20.5339 40.8029 19.2823C40.3327 18.0308 40.0977 16.656 40.0977 15.1578C40.0977 13.6597 40.3327 12.2849 40.8029 11.0333C41.273 9.78175 41.9367 8.70236 42.794 7.7951C43.6514 6.88784 44.6792 6.18298 45.8776 5.6805C47.076 5.17802 48.4034 4.92678 49.8599 4.92678C51.3165 4.92678 52.6462 5.17802 53.8492 5.6805C55.0522 6.18298 56.0823 6.88784 56.9397 7.7951C57.797 8.70236 58.4607 9.78175 58.9308 11.0333C59.401 12.2849 59.636 13.6597 59.636 15.1578ZM56.8844 15.1578C56.8844 13.9295 56.7184 12.8269 56.3866 11.8498C56.0547 10.8728 55.5846 10.047 54.9761 9.37233C54.3677 8.6977 53.6303 8.17894 52.7637 7.81604C51.8972 7.45313 50.9293 7.27169 49.8599 7.27169C48.7998 7.27169 47.8365 7.45313 46.97 7.81604C46.1034 8.17894 45.3637 8.6977 44.7506 9.37233C44.1376 10.047 43.6652 10.8728 43.3333 11.8498C43.0014 12.8269 42.8355 13.9295 42.8355 15.1578C42.8355 16.3861 43.0014 17.4864 43.3333 18.4588C43.6652 19.4312 44.1376 20.2547 44.7506 20.9293C45.3637 21.604 46.1034 22.1204 46.97 22.4787C47.8365 22.8369 48.7998 23.016 49.8599 23.016C50.9293 23.016 51.8972 22.8369 52.7637 22.4787C53.6303 22.1204 54.3677 21.604 54.9761 20.9293C55.5846 20.2547 56.0547 19.4312 56.3866 18.4588C56.7184 17.4864 56.8844 16.3861 56.8844 15.1578ZM64.2525 11.0124V20.0291C64.2525 21.0992 64.4968 21.9273 64.9853 22.5136C65.4739 23.0998 66.2114 23.3929 67.1978 23.3929C67.9168 23.3929 68.5943 23.2207 69.2304 22.8765C69.8665 22.5322 70.4519 22.053 70.9865 21.4388V11.0124H73.4478V25.1516H71.9821C71.6318 25.1516 71.4106 24.9794 71.3184 24.6351L71.1248 23.1137C70.5164 23.793 69.8342 24.3397 69.0783 24.7538C68.3224 25.1679 67.4559 25.3749 66.4787 25.3749C65.7136 25.3749 65.0384 25.2469 64.453 24.9911C63.8676 24.7352 63.3767 24.3746 62.9803 23.9093C62.584 23.4441 62.2867 22.8811 62.0885 22.2204C61.8903 21.5598 61.7912 20.8293 61.7912 20.0291V11.0124H64.2525ZM80.9542 25.3749C79.848 25.3749 78.9976 25.0632 78.403 24.4397C77.8085 23.8163 77.5112 22.9183 77.5112 21.7459V13.0921H75.8242C75.6767 13.0921 75.5523 13.0479 75.4509 12.9595C75.3495 12.8711 75.2988 12.7338 75.2988 12.5477V11.5567L77.5941 11.2636L78.1611 6.89483C78.1795 6.75525 78.2394 6.64126 78.3408 6.55286C78.4422 6.46446 78.5713 6.42026 78.728 6.42026H79.9725V11.2915H83.9825V13.0921H79.9725V21.5784C79.9725 22.1739 80.1154 22.6159 80.4011 22.9044C80.6869 23.1928 81.0556 23.3371 81.5073 23.3371C81.7655 23.3371 81.989 23.3022 82.178 23.2324C82.367 23.1626 82.5306 23.0858 82.6689 23.0021C82.8071 22.9183 82.9247 22.8416 83.0215 22.7718C83.1183 22.702 83.2035 22.6671 83.2773 22.6671C83.4063 22.6671 83.5216 22.7462 83.623 22.9044L84.342 24.0908C83.9179 24.4909 83.4063 24.8049 82.8071 25.0329C82.2079 25.2609 81.5903 25.3749 80.9542 25.3749ZM86.3174 25.1516V4.5918H88.7925V13.0502C89.3733 12.3709 90.0393 11.8242 90.7906 11.4102C91.5419 10.9961 92.4015 10.789 93.3694 10.789C94.1807 10.789 94.9135 10.9426 95.568 11.2496C96.2225 11.5567 96.7802 12.015 97.2412 12.6245C97.7021 13.234 98.057 13.9877 98.3059 14.8856C98.5548 15.7836 98.6792 16.8188 98.6792 17.9912C98.6792 19.0334 98.541 20.0035 98.2644 20.9014C97.9879 21.7994 97.5892 22.5764 97.0683 23.2324C96.5475 23.8884 95.9114 24.4048 95.1601 24.7817C94.4088 25.1585 93.563 25.347 92.6228 25.347C91.7193 25.347 90.9519 25.1702 90.3205 24.8166C89.689 24.463 89.1382 23.9698 88.6681 23.3371L88.5436 24.6212C88.4699 24.9748 88.2578 25.1516 87.9075 25.1516H86.3174ZM92.5674 12.771C91.7654 12.771 91.0625 12.9571 90.4587 13.3294C89.8549 13.7016 89.2995 14.2273 88.7925 14.9066V21.7459C89.235 22.36 89.7259 22.7927 90.2651 23.0439C90.8044 23.2952 91.4059 23.4208 92.0696 23.4208C93.3787 23.4208 94.3835 22.9509 95.0841 22.0111C95.7847 21.0712 96.135 19.7313 96.135 17.9912C96.135 17.07 96.0543 16.2791 95.893 15.6184C95.7317 14.9578 95.4989 14.4157 95.1947 13.9923C94.8905 13.569 94.5171 13.2596 94.0746 13.0642C93.6322 12.8687 93.1298 12.771 92.5674 12.771ZM111.191 25.1516H110.099C109.859 25.1516 109.666 25.1144 109.518 25.0399C109.371 24.9655 109.274 24.8073 109.228 24.5653L108.951 23.2533C108.582 23.5883 108.223 23.8884 107.873 24.1536C107.522 24.4188 107.154 24.6421 106.766 24.8236C106.379 25.005 105.967 25.1423 105.529 25.2353C105.091 25.3284 104.605 25.3749 104.07 25.3749C103.526 25.3749 103.017 25.2981 102.542 25.1446C102.067 24.9911 101.655 24.7608 101.305 24.4537C100.954 24.1466 100.675 23.7581 100.468 23.2882C100.261 22.8183 100.157 22.2623 100.157 21.6203C100.157 21.0619 100.309 20.5246 100.613 20.0081C100.917 19.4917 101.408 19.0334 102.086 18.6333C102.763 18.2332 103.651 17.9052 104.748 17.6493C105.845 17.3934 107.186 17.2468 108.771 17.2096V16.1069C108.771 15.0089 108.539 14.1785 108.073 13.6155C107.608 13.0525 106.919 12.771 106.006 12.771C105.407 12.771 104.902 12.8478 104.492 13.0013C104.082 13.1549 103.727 13.327 103.427 13.5178C103.127 13.7085 102.869 13.8807 102.653 14.0342C102.436 14.1878 102.222 14.2645 102.01 14.2645C101.844 14.2645 101.699 14.2203 101.574 14.1319C101.45 14.0435 101.351 13.9342 101.277 13.8039L100.834 13.0083C101.609 12.2546 102.443 11.6916 103.337 11.3194C104.231 10.9472 105.222 10.7611 106.31 10.7611C107.094 10.7611 107.79 10.8914 108.398 11.1519C109.006 11.4125 109.518 11.7754 109.933 12.2406C110.348 12.7059 110.661 13.2689 110.873 13.9295C111.085 14.5902 111.191 15.316 111.191 16.1069V25.1516ZM104.803 23.6302C105.236 23.6302 105.633 23.586 105.992 23.4976C106.352 23.4092 106.69 23.2836 107.008 23.1207C107.326 22.9579 107.631 22.7601 107.921 22.5275C108.211 22.2949 108.495 22.0297 108.771 21.7319V18.7868C107.638 18.8241 106.674 18.9148 105.881 19.059C105.089 19.2032 104.443 19.3917 103.946 19.6243C103.448 19.8569 103.086 20.1314 102.86 20.4478C102.634 20.7642 102.521 21.1178 102.521 21.5086C102.521 21.8808 102.581 22.2018 102.701 22.4717C102.821 22.7415 102.982 22.9625 103.185 23.1347C103.388 23.3068 103.628 23.4324 103.904 23.5115C104.181 23.5906 104.48 23.6302 104.803 23.6302ZM114.135 25.1516V11.0124H115.6C115.951 11.0124 116.172 11.1845 116.264 11.5288L116.458 13.0642C117.066 12.3849 117.746 11.8359 118.497 11.4171C119.248 10.9984 120.117 10.789 121.104 10.789C121.869 10.789 122.544 10.917 123.129 11.1729C123.715 11.4288 124.203 11.7917 124.595 12.2616C124.987 12.7315 125.284 13.2968 125.487 13.9575C125.69 14.6181 125.791 15.3486 125.791 16.1488V25.1516H123.33V16.1488C123.33 15.0787 123.088 14.2482 122.604 13.6574C122.12 13.0665 121.38 12.771 120.385 12.771C119.656 12.771 118.977 12.9478 118.345 13.3014C117.714 13.655 117.131 14.1342 116.596 14.7391V25.1516H114.135ZM131.279 4.5918V16.6932H131.915C132.099 16.6932 132.251 16.6676 132.371 16.6164C132.491 16.5652 132.625 16.4605 132.772 16.3024L137.197 11.5148C137.335 11.366 137.474 11.245 137.612 11.1519C137.75 11.0589 137.934 11.0124 138.165 11.0124H140.405L135.247 16.5536C135.118 16.7118 134.991 16.8514 134.867 16.9723C134.743 17.0933 134.602 17.2003 134.445 17.2934C134.611 17.405 134.761 17.533 134.895 17.6772C135.028 17.8214 135.155 17.9866 135.275 18.1727L140.751 25.1516H138.538C138.335 25.1516 138.163 25.112 138.02 25.0329C137.877 24.9538 137.741 24.8305 137.612 24.663L133.007 18.8706C132.869 18.6752 132.731 18.5472 132.592 18.4867C132.454 18.4263 132.247 18.396 131.97 18.396H131.279V25.1516H128.804V4.5918H131.279Z" fill="#333333"/>
<path fill-rule="evenodd" clip-rule="evenodd" d="M19.949 10.3213C19.9426 8.73774 19.4681 7.3363 18.5254 6.11695C17.5827 4.8976 16.4017 3.86412 14.9824 3.01652C16.2467 2.26183 17.3632 1.67576 18.332 1.25828C19.7851 0.632075 22.0933 0 22.9036 0C24.6074 0 25.7277 0.324917 26.5151 0.699086C27.3025 1.07325 28.305 1.84222 28.8982 2.84871C29.4913 3.8552 29.7637 4.53247 29.8781 5.78514C29.9336 6.39249 29.9627 8.17981 29.9654 11.1471L29.9651 12.3152C29.9642 13.1307 29.9615 14.0201 29.9573 14.9831C29.9615 15.9462 29.9642 16.8356 29.9651 17.6512L29.9654 18.8192C29.9627 21.7865 29.9336 23.5738 29.8781 24.1812C29.7637 25.4339 29.4913 26.1111 28.8982 27.1176C28.305 28.1241 27.3025 28.8931 26.5151 29.2672C25.7277 29.6414 24.6074 29.9663 22.9036 29.9663C22.0933 29.9663 19.7851 29.3343 18.332 28.708C17.3632 28.2906 16.2467 27.7045 14.9824 26.9498C16.4017 26.1022 17.5827 25.0687 18.5254 23.8494C19.4681 22.63 19.9426 21.2286 19.949 19.6451V10.3213Z" fill="#005AA0"/>
<path fill-rule="evenodd" clip-rule="evenodd" d="M10.5136 0.850963C9.24756 0.407425 8.08808 0.12377 7.03516 0H22.9236C21.8707 0.12377 20.7112 0.407425 19.4452 0.850963C18.1792 1.2945 16.6906 2.01662 14.9794 3.01732C13.2682 2.01662 11.7796 1.2945 10.5136 0.850963Z" fill="#36E0F5"/>
<path fill-rule="evenodd" clip-rule="evenodd" d="M10.0159 19.6451C10.0223 21.2286 10.4968 22.63 11.4395 23.8494C12.3822 25.0687 13.5632 26.1022 14.9825 26.9498C13.7182 27.7045 12.6017 28.2906 11.6329 28.708C10.1798 29.3343 7.8716 29.9663 7.06127 29.9663C5.35747 29.9663 4.23719 29.6414 3.44982 29.2672C2.66245 28.8931 1.65995 28.1241 1.06675 27.1176C0.473558 26.1111 0.201236 25.4339 0.0867825 24.1812C0.0336023 23.5991 0.00467478 21.9334 0 19.184L0.000389711 17.2372C0.00166577 16.5371 0.004088 15.7858 0.00765638 14.9832C0.004088 14.1806 0.00166577 13.4292 0.000389711 12.7291L0 10.7823C0.00467478 8.03292 0.0336023 6.36718 0.0867825 5.78514C0.201236 4.53247 0.473558 3.8552 1.06675 2.84871C1.65995 1.84222 2.66245 1.07325 3.44982 0.699086C4.23719 0.324917 5.35747 0 7.06127 0C7.8716 0 10.1798 0.632075 11.6329 1.25828C12.6017 1.67576 13.7182 2.26183 14.9825 3.01652C13.5632 3.86412 12.3822 4.8976 11.4395 6.11695C10.4968 7.3363 10.0223 8.73774 10.0159 10.3213V19.6451Z" fill="#00C2FF"/>
<path fill-rule="evenodd" clip-rule="evenodd" d="M7.03516 29.9665C8.08808 29.8428 9.24756 29.5591 10.5136 29.1156C11.7796 28.672 13.2682 27.9499 14.9794 26.9492C16.6906 27.9499 18.1792 28.672 19.4452 29.1156C20.7112 29.5591 21.8707 29.8428 22.9236 29.9665H7.03516Z" fill="#0086B9"/>
</g>
<defs>
<clipPath id="clip0_633_228451">
<rect width="140.769" height="30" fill="white"/>
</clipPath>
</defs>
</svg>
